<?xml version="1.0" encoding="UTF-8"?>
<svg width="41px" height="41px" viewBox="0 0 41 41" version="1.1" xmlns="http://www.w3.org/2000/svg" xmlns:xlink="http://www.w3.org/1999/xlink">
    <title>Group 10</title>
    <g id="Page-1" stroke="none" stroke-width="1" fill="none" fill-rule="evenodd">
        <g id="BuddhaDashboard" transform="translate(-1214.000000, -29.000000)">
            <g id="Group-10" transform="translate(1214.000000, 29.000000)">
                <rect id="Rectangle-Copy-3" fill="#6926FF" x="0" y="0" width="41" height="41" rx="20.5"></rect>
                <g id="discord-fill" transform="translate(11.000000, 11.000000)">
                    <polygon id="Path" points="0 0 19.2 0 19.2 19.2 0 19.2"></polygon>
                    <path d="M8.0608,8.8 C8.5408,8.8 8.9296,9.16 8.9208,9.6 C8.9208,10.04 8.5416,10.4 8.0608,10.4 C7.5888,10.4 7.2,10.04 7.2,9.6 C7.2,9.16 7.58,8.8 8.0608,8.8 Z M11.1392,8.8 C11.62,8.8 12,9.16 12,9.6 C12,10.04 11.62,10.4 11.1392,10.4 C10.6672,10.4 10.2792,10.04 10.2792,9.6 C10.2792,9.16 10.6584,8.8 11.1392,8.8 Z M15.1128,1.6 C16.0432,1.6 16.8,2.3728 16.8,3.3304 L16.8,18.4 L15.0312,16.804 L14.0352,15.8632 L12.9816,14.8632 L13.4184,16.4176 L4.0872,16.4176 C3.1568,16.4176 2.4,15.6448 2.4,14.6872 L2.4,3.3304 C2.4,2.3728 3.1568,1.6 4.0872,1.6 L15.112,1.6 L15.1128,1.6 Z M11.9368,12.5704 C13.7552,12.512 14.4552,11.2936 14.4552,11.2936 C14.4552,8.5888 13.2696,6.396 13.2696,6.396 C12.0856,5.4896 10.9576,5.51433324 10.9576,5.51433324 L10.8424,5.6488 C12.2416,6.0856 12.8912,6.716 12.8912,6.716 C12.1272545,6.28559038 11.285312,6.01146958 10.4144,5.9096 C9.86195074,5.84720303 9.30394526,5.85257622 8.7528,5.9256 C8.7032,5.9256 8.6616,5.9344 8.6128,5.9424 C8.3248,5.968 7.6248,6.0768 6.7448,6.472 C6.4408,6.6144 6.2592,6.716 6.2592,6.716 C6.2592,6.716 6.9424,6.052 8.4232,5.6152 L8.3408,5.51433324 C8.3408,5.51433324 7.2136,5.4896 6.0288,6.3968 C6.0288,6.3968 4.844,8.5888 4.844,11.2936 C4.844,11.2936 5.5352,12.5112 7.3536,12.5704 C7.3536,12.5704 7.6576,12.1928 7.9056,11.8736 C6.86,11.5536 6.4656,10.8816 6.4656,10.8816 C6.4656,10.8816 6.5472,10.9408 6.6952,11.0248 C6.7032,11.0328 6.7112,11.0416 6.728,11.0496 C6.7528,11.0672 6.7776,11.0752 6.8024,11.092 C7.008,11.2096 7.2136,11.3016 7.4024,11.3776 C7.74,11.512 8.1432,11.6464 8.6128,11.7392 C9.31625533,11.8770881 10.0395293,11.879803 10.744,11.7472 C11.154334,11.673962 11.5546666,11.5528688 11.9368,11.3864 C12.2248,11.2768 12.5456,11.1168 12.8832,10.8904 C12.8832,10.8904 12.472,11.5792 11.3936,11.8904 C11.6408,12.2096 11.9376,12.5704 11.9376,12.5704 L11.9368,12.5704 Z" id="Shape" fill="#FFFFFF" fill-rule="nonzero"></path>
                </g>
            </g>
        </g>
    </g>
</svg>