<?xml version="1.0" encoding="UTF-8"?>
<svg width="39px" height="54px" viewBox="0 0 39 54" version="1.1" xmlns="http://www.w3.org/2000/svg" xmlns:xlink="http://www.w3.org/1999/xlink">
    <title>Project_1.ai</title>
    <g id="Page-1" stroke="none" stroke-width="1" fill="none" fill-rule="evenodd">
        <g id="BuddhaDashboard" transform="translate(-48.000000, -22.000000)">
            <g id="Project_1.ai" transform="translate(48.000000, 22.000000)">
                <circle id="Oval" fill="#FEF4AD" fill-rule="nonzero" cx="20.58375" cy="9.24975" r="9.24975"></circle>
                <path d="M17.421,16.28625 C17.32575,16.527 17.09175,16.974 16.66575,16.9890133 C16.517958,16.9903554 16.3893927,16.8880662 16.3575,16.74375 C16.2885,16.44375 16.33125,16.02675 16.35075,15.8775 C16.3555178,15.8389453 16.353487,15.7998532 16.34475,15.762 L16.092,14.6895 L15.7785,13.386 C15.7785,13.3785 15.7785,13.37175 15.77325,13.36425 L15.411,12.21525 C15.3996698,12.1791266 15.3945968,12.1413325 15.396,12.1035 L15.43275,11.316 C15.4379586,11.1740605 15.5354158,11.052239 15.67275,11.016 L15.67275,11.016 C15.729376,10.9998864 15.789374,10.9998864 15.846,11.016 L16.221,11.1285 C16.3168649,11.1563844 16.3942411,11.2273819 16.43025,11.3205 L16.83225,12.36 C16.8473868,12.3999713 16.854522,12.4425275 16.85325,12.48525 C16.84425,12.7965 16.80525,14.142 16.80525,14.20125 C16.80525,14.2605 17.00475,15.2985 17.0385,15.36525 C17.0625,15.414 17.28225,15.80025 17.39925,16.005 C17.4500735,16.0901933 17.458121,16.1942556 17.421,16.28625 Z" id="Path" fill="#FFFFFF" fill-rule="nonzero"></path>
                <path d="M17.06325,16.311 C17.14875,16.4025 17.21325,17.05125 16.662,17.061 C16.11075,17.07075 15.85725,16.61775 15.876,16.038 C15.89475,15.45825 15.9825,14.5155 15.6765,13.83525 C15.3705,13.155 15.0465,12.588 15.015,11.727 C14.9835,10.866 15.30225,10.64775 15.564,10.227 C15.5955,10.146 15.4395,9.86475 15.402,9.46575 C15.3645,9.06675 14.71575,5.42325 18.1845,4.06575 C18.1095,3.54075 18.09675,2.9925 18.5595,2.41575 C19.02225,1.839 19.50675,1.5555 20.90625,1.431 C22.30575,1.3065 23.48925,2.142 23.61375,3.30225 C23.6169271,3.54829771 23.6044017,3.79429745 23.57625,4.03875 C23.57625,4.03875 25.947,5.16375 26.022,7.66875 C26.08425,8.892 25.92225,9.89025 25.785,10.28925 C26.0595,10.52625 26.59575,10.76925 26.24625,12.354 C26.0595,13.30875 25.51875,14.31525 25.5105,14.6475 C25.50225,14.97975 25.419,15.73725 25.5105,16.25325 C25.494,16.461 25.30275,16.9515 24.87825,17.00325 C24.45375,17.055 24.2625,16.60425 24.25425,16.2795 C24.25425,16.188 24.07125,16.13775 23.97975,16.37925 C23.8785074,16.6793001 23.8278173,16.9940855 23.82975,17.31075 C23.838,17.58525 23.8545,17.68575 24.0705,17.64375 C24.2865,17.60175 25.002,17.47725 25.55925,18.351 C25.7175,18.3255 26.16675,18.201 26.80725,18.92475 C26.94,18.9495 27.597,18.933 28.23225,19.44975 C28.44075,19.49175 30.88575,19.9245 31.65075,22.23675 C31.86975,22.9935 31.63275,24.22875 31.7445,24.51525 C31.85625,24.80175 32.42475,25.64025 32.45775,26.66175 C32.49075,27.68325 32.30025,28.458 32.30775,28.59975 C32.31525,28.7415 32.79825,29.04975 33.04125,30.71625 C33.07875,31.44 32.79825,31.95825 32.89125,32.2515 C32.98425,32.54475 33.38775,32.634 33.33,33.2265 C33.27225,33.819 33.08025,34.00875 33.147,34.3515 C33.21375,34.69425 33.47925,34.8345 33.42975,35.40825 C33.3795,35.66625 33.24675,35.7495 33.33825,35.97375 C33.42975,36.198 33.95625,36.378 34.48125,38.4615 C34.83075,39.84675 35.475,42.105 35.77425,42.5205 C36.29025,43.4685 38.187,43.818 38.30325,46.97925 C38.2695,48.0105 37.5045,50.7555 33.9615,51.43725 C33.39525,51.5535 32.073,51.71175 30.3615,51.31275 C30.22425,51.38775 27.255,51.7035 24.99225,51.1875 C23.316,50.87175 23.00025,50.63475 22.9215,50.697 C22.84275,50.75925 23.11275,51.28725 24.855,51.699 C24.75975,51.753 24.348,51.7245 24.348,51.849 C24.348,51.9735 24.75525,52.1025 25.87425,52.431 C26.361,52.527 26.7225,52.5645 26.727,52.61025 C26.7315,52.656 26.007,52.91025 25.40025,52.818 C24.7935,52.72575 24.102,52.38525 23.52525,52.419 C22.72275,52.45425 21.978,53.1345 21.3795,53.151 C20.781,53.1675 20.4975,53.26725 19.8795,53.043 C18.8295,52.73475 18.3045,52.00275 17.14275,51.96975 C16.311,51.945 15.4125,52.6515 14.7555,52.80975 C14.0985,52.968 13.6245,52.8765 13.0755,52.75125 C12.5265,52.626 11.6865,52.36875 11.12925,52.344 C11.5695,52.20225 13.94025,51.3045 14.88825,50.1315 C14.88825,50.1315 13.19175,51.3045 9.89775,51.07125 C8.3505,50.988 6.58725,51.1005 5.3895,51.01275 C4.19175,50.925 1.4595,50.88825 0.38625,47.994 C0.23625,47.208 -0.225,46.584 0.34875,44.41275 C1.08525,42.79125 2.283,42.75375 3.01875,42.36675 C3.7545,41.97975 4.803,41.21925 5.652,41.2065 C6.78675,41.169 7.1985,41.38125 7.39875,41.26875 C7.599,41.15625 7.785,40.60725 8.958,40.29375 C9.357,40.28175 9.906,40.44375 10.31775,40.21275 C10.7295,39.98175 11.03775,39.33375 11.412,39.24225 C11.78625,39.15075 12.537,39.23325 12.58425,39.117 C12.6315,39.00075 12.35175,38.466 12.5325,37.73025 C12.71325,36.9945 12.876,36.70725 12.7635,36.645 C12.651,36.58275 10.04775,39.708 7.752,39.50775 C7.0695,39.42525 5.98875,38.02725 5.83875,36.2475 C5.87175,34.9665 6.05475,33.6855 6.6375,32.538 C7.13048983,31.2398162 7.47102168,29.888763 7.65225,28.512 C7.902,26.56575 8.118,23.904 9.00225,21.77475 C9.91725,19.72875 12.762,19.54575 13.461,19.7115 C13.8765,19.5285 14.6445,19.32075 15.081,19.221 C15.5175,19.12125 16.75275,18.753 17.046,18.321 C17.33925,17.889 17.589,17.1045 17.4765,16.5555 C17.364,16.0065 16.55925,14.397 16.491,13.65525 C16.42275,12.9135 16.40925,12.36975 16.13475,11.8455 C15.9795,11.58975 15.9135,11.4705 15.792,11.5455 C15.6705,11.6205 15.636,12.3705 15.786,12.84 C15.92325,13.39575 16.35375,14.30625 16.386,14.886 C16.455,15.5355 16.284,16.47975 16.62975,16.54575 C16.79325,16.5735 16.94475,16.17 17.06325,16.311 Z" id="Path" fill="#000000" fill-rule="nonzero"></path>
                <path d="M12.81525,39.2265 C12.83175,38.661 13.4805,37.09725 13.6305,36.6315 C13.9965,36.19875 16.9575,33.6705 18.6555,31.8075 C21.2805,28.61325 22.1805,26.36775 22.665,24.90375 C21.5505,27.4485 17.415,32.11125 16.815,32.685 C16.215,33.25875 13.84575,35.3175 13.7955,35.3175 C14.0205,34.99275 16.51125,30.85875 16.51125,30.85875 C16.51125,30.85875 17.84775,29.9025 18.4965,29.355 C20.01825,27.93 21.90225,25.026 22.539,24.0525 C23.17575,23.079 24.07725,21.18675 24.4515,20.2635 C24.9345,19.04925 24.48525,17.91375 24.48525,17.91375 C24.48525,17.91375 25.2585,18.26775 25.026,19.332 C24.79275,20.232 22.8465,23.7075 23.013,24.507 C23.745,23.07675 24.60975,21.282 25.00875,20.832 C25.2915,20.4 25.60875,19.119 25.60875,18.5865 C25.8915,18.8865 27.80475,21.198 27.60525,26.6865 C27.405,30.41325 27.339,34.3365 26.0415,35.96925 C26.37375,34.572 27.10575,31.91025 26.7735,30.0135 C26.54025,31.4775 25.84125,35.004 24.9435,36.20175 C24.47775,36.30225 23.163,36.48075 23.13825,36.2685 C23.13825,36.2685 26.943,31.75575 26.62125,23.3325 C26.6235282,23.2910786 26.5917964,23.2556532 26.550375,23.253375 C26.5089536,23.2510968 26.4735282,23.2828286 26.47125,23.32425 C26.3475,24.252 26.088,25.9275 25.57125,28.34925 C24.7395,32.2755 24.174,34.03875 22.54425,35.83575 C22.17825,36.26775 21.4005,36.2925 20.87625,36.081 C20.0923836,35.7730271 19.2234398,35.7597038 18.4305,36.0435 C17.4555,36.405 16.3095,36.80475 16.3095,36.80475 L15.62325,39.21225 C15.62325,39.21225 13.37775,39.28725 13.203,39.28725 L13.03125,39.28725 L12.81525,39.2265 Z" id="Path" fill="#F4CC12" fill-rule="nonzero"></path>
                <path d="M13.63125,51.83625 C13.63125,51.83625 15.53775,50.87175 15.7785,49.65525 C15.8030049,49.5170858 15.8739097,49.3914149 15.9795,49.299 C16.51875,48.8385 16.98225,48.51 17.04975,47.74425 C16.10175,48.5175 12.9825,50.48925 8.9895,50.13975 C4.9965,49.79025 2.277,48.18975 2.028,44.40075 C1.55325,44.72475 0.453,47.04525 3.849,49.5405 C3.07575,49.71525 1.30425,49.329 0.8925,46.434 C0.7425,45.174 1.1175,43.6515 2.72625,43.1025 C3.288,42.9525 4.60125,43.0905 5.32125,43.365 C5.19675,42.99 4.52325,42.32925 4.52325,42.32925 C4.52325,42.32925 5.43,41.65425 7.7085,42.03825 C8.973,42.20475 10.1835,42.105 10.7835,41.73825 C9.852,41.8545 8.5875,41.4885 8.5875,41.4885 C8.5875,41.4885 9.06975,40.68975 10.51725,40.956 C11.5485,41.139 13.3455,43.281 15.52425,42.12075 C15.52425,42.12075 12.44925,42.35325 11.26575,40.47075 C11.748,40.005 12.38025,39.35625 13.395,39.95475 C14.37675,40.70475 18.65175,42.45 21.01425,39.381 C21.01425,39.381 18.48525,41.18625 16.22325,40.737 C15.27525,40.67025 14.493,39.93825 14.493,39.93825 C14.493,39.93825 16.42275,40.52925 18.7185,39.95475 C19.7685,39.57975 21.189,38.88225 21.8625,38.88225 C22.536,38.88225 23.934,39.10725 23.40975,39.68025 C22.8855,40.25325 22.16175,41.75175 17.82,43.19925 C18.81825,43.19925 20.016,43.27425 22.686,41.2275 C23.48475,40.52925 24.27075,39.294 24.795,39.4185 C24.6945,39.7935 23.64675,41.889 21.10125,43.3485 C21.825,43.386 22.9605,42.933 24.075,41.75175 C25.1565,40.50375 25.80525,39.639 25.80525,39.639 L26.33025,39.855 C25.9415347,39.9056194 25.5797011,40.0808784 25.299,40.3545 C25.08,40.575 25.044,40.9905 24.8415,41.35275 C25.6065,40.67025 26.5215,40.10475 27.20325,40.10475 C27.8685,40.33725 28.2015,40.47075 28.2015,40.47075 C28.2015,40.47075 26.07225,40.5375 24.1425,42.35025 C23.46075,42.71625 22.61175,44.19675 22.61175,44.19675 C22.61175,44.19675 21.49725,43.548 20.33325,44.79675 C20.04975,44.364 19.218,43.266 17.5215,44.364 C17.58825,43.7985 17.6715,43.416 17.38875,43.0995 C17.106,42.783 16.68975,42.41775 15.675,42.75075 C14.727,43.017 14.025,43.2165 13.05,42.78375 C12.075,42.351 11.1375,41.85225 10.52175,42.1185 C9.906,42.38475 9.54,42.8505 9.09075,42.78375 C8.6415,42.717 7.8435,42.318 7.41075,42.651 C6.978,42.984 7.04475,43.36575 6.87825,43.36575 C6.71175,43.36575 6.09675,43.29975 5.58075,43.749 C5.21475,43.6485 3.15225,43.017 2.23725,44.3805 C3.18525,44.0805 4.566,43.815 5.6805,44.63025 C6.3465,45.14625 7.26975,47.66625 9.8895,47.991 C11.3145,48.0405 13.13325,47.66625 13.845,46.01925 C15.966,46.98 17.238,47.54175 17.238,47.54175 C17.238,47.54175 17.787,47.77875 17.37525,48.51675 C16.9635,49.25475 15.9945,50.80425 15.52875,51.15375 C16.893,50.38875 17.3925,49.4235 18.05775,48.35925 C18.213,49.33425 18.3825,50.8635 19.59225,51.76725 C19.6205637,51.7922319 19.6630346,51.7922693 19.6913923,51.7673374 C19.71975,51.7424055 19.7251509,51.7002793 19.704,51.669 C19.098,50.63025 18.468,49.419 18.77325,48.294 C19.089,48.594 19.68825,48.66 19.68825,48.66 C19.68825,48.66 20.63625,49.84125 21.61725,50.09025 C21.75075,50.4735 22.10025,51.14025 23.08125,51.59025 C22.2495,51.80625 21.43125,52.305 20.7195,52.32225 C20.00775,52.3395 19.8375,52.32225 19.2195,51.87225 C18.6015,51.42225 17.6895,50.64075 16.72425,50.97225 C15.759,51.30375 15.0945,51.92025 14.47875,51.88725 C13.863,51.85425 13.63125,51.83625 13.63125,51.83625 Z" id="Path" fill="#F3CD11" fill-rule="nonzero"></path>
                <path d="M18.33825,44.484 C18.33825,44.484 18.93825,44.26725 19.5195,44.84925 C20.10075,45.43125 20.4195,46.6965 21.5985,46.9125 C21.366,46.347 20.60025,45.54825 20.451,45.099 C20.93325,44.916 21.801,44.5665 22.21425,44.799 C22.6275,45.0315 22.91325,45.3315 23.91075,46.0635 C24.8925,46.74525 27.12975,48.417 30.723,48.0675 C31.719,47.82375 32.82975,47.514 33.411,46.6665 C33.4623399,46.5944888 33.4550992,46.496121 33.3937686,46.4324032 C33.332438,46.3686854 33.2344181,46.3576958 33.1605,46.40625 C32.319,46.965 30.789,47.727 28.902,47.41875 C26.45625,47.01975 24.66,46.2465 23.66175,44.724 C24.2355,44.6745 25.458,44.4 26.33175,44.649 C27.2055,44.898 28.6275,45.174 29.451,45.04875 C28.776,44.724 28.0785,44.42475 28.0785,44.42475 C28.0785,44.42475 28.8765,43.97475 30.474,44.04975 C32.0715,44.12475 34.566,44.49975 35.68875,43.875 C33.618,43.875 33.069,43.77525 33.069,43.77525 C33.1957115,43.4835463 33.1182552,43.1433463 32.87775,42.93525 C32.4615,42.56925 31.39725,42.5355 30.8145,42.8355 C30.948,42.4695 32.0145,41.538 33.8595,42.43575 C33.51,42.63525 33.144,42.63525 33.09375,42.81825 C33.759,42.91875 36.3375,42.777 37.1115,45.12225 C37.4865,46.37025 37.95975,49.5645 33.64275,50.41275 C32.121,50.68725 29.07675,50.4375 26.7555,49.58775 C24.45975,48.76275 22.63875,47.5665 21.9645,47.2425 C22.539,48.0675 24.36,49.46325 27.18,50.586 C26.10675,50.56125 23.63625,50.46075 21.99,49.461 C20.34375,48.46125 19.54425,46.3665 19.34475,45.91725 C19.14525,45.468 18.8535,44.69175 18.33825,44.484 Z" id="Path" fill="#F4CC12" fill-rule="nonzero"></path>
                <path d="M16.5495,28.815 C16.59375,28.98375 17.84775,29.04975 18.03075,29.00025 C18.61275,28.65075 20.592,25.6065 22.0725,23.11125 C23.886,20.01675 23.78625,19.1685 23.8725,18.4695 C23.1405,18.2535 23.1225,17.63775 23.09025,17.38875 C20.99475,19.10175 18.99825,17.721 18.28275,17.23875 C18.06675,19.368 15.921,19.5675 15.039,19.7505 C18.264,20.3505 19.914,21.43125 20.82825,21.963 C18.48225,20.96475 14.20725,20.39925 12.8265,20.433 C10.512,20.4885 9.7155,21.348 8.934,23.16075 C8.1525,24.9735 8.2515,26.10525 8.334,27.56925 C8.4165,29.03325 8.01825,31.01325 7.81875,31.64475 C7.45275,32.47725 7.56075,32.69475 7.29375,33.5745 L8.1045,33.525 C8.37336975,33.4479543 8.65016757,33.4019052 8.9295,33.38775 C9.42932005,33.3665216 9.91510936,33.2161336 10.3395,32.95125 C10.80075,32.65125 11.42475,31.94025 11.9145,31.641 C11.9145,31.266 11.802,28.39725 12.027,27.723 C11.715,26.937 11.31525,25.29 10.84125,24.99075 C11.21625,24.95325 11.96625,24.9285 12.13875,26.6625 C12.234,26.3925 13.62825,25.9125 14.36025,26.2875 C15.6465,26.94825 16.5495,28.815 16.5495,28.815 Z" id="Path" fill="#FACDA3" fill-rule="nonzero"></path>
                <path d="M14.7975,25.01175 C14.7975,25.053 15.03075,25.07025 15.2385,25.48575 C15.546,24.87825 15.756,24.53325 15.87075,24.33825 C16.008,24.105 16.299,23.64375 16.53075,23.80575 C16.7515147,23.9406664 16.858329,24.2038982 16.794,24.4545 C16.72725,24.987 16.0815,25.9935 16.06425,26.442 C16.06425,26.442 16.43925,26.5335 16.23075,27.033 C16.43025,27.141 16.722,27.24075 16.6635,27.36525 C16.605,27.48975 16.38075,27.95625 16.43025,28.3635 C16.47975,28.77075 16.48875,29.0295 16.48875,29.0295 C16.3985987,29.3115572 16.3550274,29.6064236 16.35975,29.9025 C16.3845,30.31425 16.39725,31.48725 15.23475,32.63475 C14.88525,33.13425 12.5025,37.77975 9.408,38.92725 C7.764,38.83575 7.158,38.691 6.84075,38.01225 C6.1155,36.4665 6.41625,35.0925 6.41625,35.0925 C6.41625,35.0925 7.19025,33.42075 9.1365,33.396 C10.0515,33.16275 10.68375,33.07125 11.9115,31.55775 C11.79525,31.15875 11.934,31.14225 12.01725,30.09375 C12.1005,29.04525 12.057,26.904 12.16725,26.5965 C12.2775,26.289 12.43875,25.90725 12.474,25.79325 C12.68175,25.11825 12.7485,24.59325 13.098,24.621 C13.4475,24.64875 13.36875,25.71525 13.36875,25.71525 L13.58325,25.3695 C13.7202539,25.0596775 13.8729518,24.7570353 14.04075,24.46275 C14.169,24.25875 14.29875,23.9805 14.44425,23.8095 C14.5451783,23.6885561 14.7181092,23.6569993 14.85525,23.7345 C15.02925,23.838 15.174,24.0585 15.048,24.429 C14.9829505,24.6306724 14.8990814,24.8257812 14.7975,25.01175 Z" id="Path" fill="#000000" fill-rule="nonzero"></path>
                <path d="M15.447,27.603 C15.447,27.603 14.64225,27.58425 14.33625,27.684 C14.26125,27.447 13.9935,26.67975 14.3925,25.569 C14.505,25.2945 14.71125,25.02 14.9175,25.269 C15.12375,25.518 15.354,26.07375 15.47925,26.217 C15.6045,26.36025 15.85425,26.65575 16.19025,26.67225 C16.34025,26.71425 16.15275,26.91975 15.92775,26.9535 C15.70275,26.98725 15.36225,26.81175 15.1965,26.70375 C15.03075,26.59575 14.48925,26.09625 14.48925,26.09625 C14.48925,26.09625 14.6475,26.42925 14.847,26.562 C14.88,26.77875 14.955,27.41025 14.955,27.41025 C14.9955617,27.2304722 15.045632,27.0529728 15.105,26.8785 C15.171,26.9445 15.279,27.1035 15.67875,27.2445 C15.5916843,27.3573611 15.5141665,27.4772753 15.447,27.603 Z" id="Path" fill="#FECFA1" fill-rule="nonzero"></path>
                <path d="M15.69525,26.08425 C15.7358255,26.1180671 15.7900893,26.1305205 15.8413498,26.1177795 C15.8926103,26.1050384 15.9347289,26.0686287 15.95475,26.01975 C16.038,25.81575 16.17375,25.5165 16.3125,25.19475 C16.458,24.858 16.56975,24.68625 16.62075,24.4335 C16.6444281,24.3281832 16.637135,24.2182653 16.59975,24.117 C16.5814489,24.0655301 16.53886,24.0264542 16.4860087,24.0126408 C16.4331573,23.9988274 16.376895,24.0120671 16.33575,24.048 C16.251,24.123 16.1685,24.26625 16.01325,24.558 C15.77775,25.00125 15.63825,25.27125 15.4365,25.62675 C15.4047375,25.6827227 15.4082463,25.7520217 15.4455,25.8045 C15.5135747,25.9102624 15.5978536,26.0046649 15.69525,26.08425 Z" id="Path" fill="#FECFA1" fill-rule="nonzero"></path>
                <path d="M13.881,32.355 C13.881,32.355 12.9915,32.38875 12.6585,31.79775 C12.3255,31.20675 12.42525,30.1845 12.42525,29.7015 C12.42525,29.2185 12.46725,27.26475 12.6165,26.34975 C12.654,26.1195 12.8925,25.0875 13.1415,25.239 C13.2915,25.3305 13.17825,26.283 13.10325,26.60775 C13.0335,26.913 12.91575,27.53625 13.047,28.0005 C13.0488824,28.0094016 13.0488824,28.0185984 13.047,28.0275 C13.0185,28.19475 12.774,28.3125 12.774,28.3125 C12.774,28.3125 14.607,27.80925 15.26625,27.9195 C15.2964171,27.9248519 15.3171542,27.9528306 15.3135,27.98325 C15.27975,28.2675 15.2205,28.74 15.3435,29.08125 C15.3499398,29.0973231 15.3493941,29.1153521 15.3419939,29.1310062 C15.3345938,29.1466604 15.321008,29.158525 15.3045,29.16375 C14.91,29.28525 14.27025,29.604 14.1255,30.234 C14.1190421,30.2610239 14.1317413,30.2889851 14.15634,30.3019039 C14.1809388,30.3148227 14.2111673,30.3094062 14.22975,30.28875 C14.50275,29.973 14.93925,29.571 15.78,29.34225 C15.8104325,29.3344959 15.8290902,29.303844 15.822,29.27325 C15.693,28.7415 15.564,27.96375 15.90975,27.489 C16.01775,27.3315 16.3425,27.3645 16.25925,27.6225 C16.1355736,28.0110201 16.120274,28.4259263 16.215,28.8225 C16.2168659,28.8311505 16.2168659,28.8400995 16.215,28.84875 C16.155,29.05575 16.0275,29.34075 16.05225,30.03825 C16.077,30.59925 15.8775,31.62225 15.37725,32.13375 C15.20325,32.307 14.9505,32.5425 14.367,32.3745 C14.3580634,32.3729894 14.3489366,32.3729894 14.34,32.3745 C13.9785,32.3925 13.881,32.355 13.881,32.355 Z" id="Path" fill="#FECFA1" fill-rule="nonzero"></path>
                <path d="M13.5345,27.915 C13.4947665,27.9257218 13.4523509,27.9191154 13.4177603,27.8968174 C13.3831697,27.8745193 13.35964,27.8386155 13.353,27.798 C13.30575,27.51825 13.227,26.91375 13.34325,26.463 C13.4833786,25.8909514 13.7046195,25.3418901 14.00025,24.8325 C14.30025,24.321 14.60025,23.63925 14.8485,23.976 C15.01125,24.276 14.703,24.80775 14.5575,24.9825 C14.2110456,25.4040844 13.9986852,25.9197048 13.94775,26.463 C13.89525,27.147 13.89675,27.29475 13.959,27.64725 C13.9705476,27.7183454 13.9299321,27.7876121 13.86225,27.81225 C13.7265,27.86025 13.6155,27.89325 13.5345,27.915 Z" id="Path" fill="#FECFA1" fill-rule="nonzero"></path>
                <path d="M24.843,11.60325 C25.1100974,12.3064235 25.2345161,13.0557401 25.209,13.8075 C25.46625,13.17525 25.67475,12.62625 25.75725,11.80275 C25.7745,11.2125 25.59975,10.971 25.4415,11.09625 C25.28325,11.2215 25.317,11.445 24.843,11.60325 Z" id="Path" fill="#FFFFFF" fill-rule="nonzero"></path>
                <path d="M25.02375,14.37525 C25.113,14.40675 25.092,14.56425 24.9675,14.964 C24.9255,15.1965 24.9345,15.42975 25.06725,15.81225 C25.134,16.10325 24.95925,16.60275 24.76725,16.5525 C24.57525,16.50225 24.60075,16.14525 24.49275,16.05375 C24.38475,15.96225 24.20175,15.95325 24.393,15.57075 C24.76575,14.99925 24.9345,14.34375 25.02375,14.37525 Z" id="Path" fill="#FFFFFF" fill-rule="nonzero"></path>
                <path d="M21.13125,17.4675 C22.19475,17.41725 24.24225,15.87075 24.77475,13.55775 C24.8745,12.62625 24.75825,11.11275 24.708,10.21425 C24.6585,9.5655 24.477,9.36 24.333,9.18525 C24.189,9.0105 24.021,8.8545 23.99625,8.21775 C23.9775,7.91775 23.72175,7.19475 22.5615,7.01775 C21.825,6.94275 21.4755,7.25475 20.952,7.25475 C20.4285,7.25475 19.377,6.906 18.9555,6.95475 C18.534,7.0035 17.7555,7.167 17.37075,8.25225 C17.3085,8.502 17.43375,8.9325 17.33325,9.15675 C17.27775,9.444 16.89075,9.912 17.00925,10.35675 C17.00925,10.35675 17.24025,9.8895 17.4645,9.78975 C17.68875,9.69 18.1635,9.546 18.5565,9.5775 C18.9495,9.609 19.94925,9.939 19.80825,10.73775 C19.6005,10.596 17.85375,9.63975 16.947,10.713 C16.91325,10.92075 17.0385,11.37825 17.0385,11.37825 C17.0385,11.37825 19.2675,11.77725 19.8,11.328 C19.6665,11.57775 19.35,12.12675 18.48525,12.0105 C17.9729829,11.9429879 17.475473,11.7909217 17.013,11.5605 C17.013,11.5605 16.959,13.07025 17.2215,14.25525 C17.484,15.44025 18.9285,17.57175 21.13125,17.4675 Z" id="Path" fill="#FACDA3" fill-rule="nonzero"></path>
                <circle id="Oval" fill="#000000" fill-rule="nonzero" cx="21.237" cy="14.22525" r="1"></circle>
                <ellipse id="Oval" fill="#000000" fill-rule="nonzero" transform="translate(20.014188, 14.225413) rotate(-15.250000) translate(-20.014188, -14.225413) " cx="20.0141883" cy="14.225413" rx="1" ry="1"></ellipse>
                <path d="M21.43125,15.11325 C21.28575,15.009 21.2145,14.9715 21.09825,14.96775 C20.982,14.964 20.9025,15.084 20.745,15.08025 L20.745,15.08025 C20.5875,15.084 20.508,14.964 20.39175,14.96775 C20.2755,14.9715 20.205,15.00975 20.0595,15.11325 C19.914,15.21675 19.42725,15.276 19.42725,15.276 C19.9635,15.47925 20.10225,15.32175 20.30475,15.42975 C20.44725,15.50475 20.57175,15.56625 20.652,15.603 C20.7111537,15.6307666 20.7795963,15.6307666 20.83875,15.603 C20.91825,15.5655 21.04275,15.5055 21.18525,15.429 C21.38925,15.321 21.5265,15.47925 22.0627509,15.279 C22.0635,15.27525 21.58125,15.2175 21.43125,15.11325 Z" id="Path" fill="#000000" fill-rule="nonzero"></path>
                <path d="M19.9875,15.71625 C20.2025121,15.8528818 20.4505858,15.9285741 20.70525,15.93525 C21.10425,15.93525 21.45525,15.79125 21.504,15.6975 C21.3975,15.95325 21.273,16.34025 20.74275,16.34025 C20.2125,16.34025 19.9875,15.71625 19.9875,15.71625 Z" id="Path" fill="#000000" fill-rule="nonzero"></path>
                <path d="M21.35625,10.755 C21.35625,10.755 21.369,9.67575 22.69125,9.555 C23.253,9.5115 23.8455,9.61125 24.06375,10.503 C23.808,10.347 23.502,10.04775 22.76625,10.1415 C22.0305,10.23525 21.35625,10.755 21.35625,10.755 Z" id="Path" fill="#000000" fill-rule="nonzero"></path>
                <path d="M21.39075,11.4555 C21.39075,11.4555 22.33875,11.574 22.80675,11.58075 C23.27475,11.5875 24.0735,11.6055 24.18525,11.493 C24.02925,11.6865 23.66775,12.186 22.84425,12.05475 C22.3223015,11.961823 21.8265319,11.7574268 21.39075,11.4555 L21.39075,11.4555 Z" id="Path" fill="#000000" fill-rule="nonzero"></path>
                <path d="M16.9215,40.20825 C16.9215,40.20825 16.11,40.24575 15.474,40.0335 C14.838,39.82125 14.63175,39.84 14.37,39.70275 C14.10825,39.5655 13.4775,39.23475 13.1655,39.27225 C13.1655,39.03525 13.0155,38.499 14.07525,38.29725 C14.22525,38.172 14.61975,37.67775 15.4065,38.03925 C15.531,37.7775 15.59625,37.392 15.64575,37.30875 C15.6740555,37.2586787 15.6952587,37.2049135 15.70875,37.149 C15.7485,36.999 15.84825,36.9885 16.0005,36.9705 L16.01025,36.9555 C16.0654794,36.8656648 16.1601563,36.8074664 16.26525,36.79875 C16.29,36.79875 16.317,36.79875 16.34775,36.79875 C16.5975,36.81375 17.33175,36.6885 18.2745,36.228 C18.5858224,36.0767684 18.9259913,35.9941559 19.272,35.98575 C19.83975,35.9715 20.67675,36.006 21.35025,36.2415 C21.8079473,36.3336128 22.2704105,36.4002155 22.7355,36.441 L22.374,38.86125 C22.374,38.86125 21.849,38.69925 21.6,38.7615 C21.351,38.82375 20.9385,39.2355 19.4295,39.59775 C17.76975,39.88425 17.76975,40.09575 16.9215,40.20825 Z" id="Path" fill="#000000" fill-rule="nonzero"></path>
                <path d="M28.64925,35.21775 C28.64925,35.21775 28.40025,36.141 25.68,36.765 C24.981,36.8145 22.68525,37.065 22.01175,36.86475 C21.3536625,36.6621018 20.679459,36.5160704 19.9965,36.42825 C19.566,36.3795 19.05975,36.372 18.717,36.438 C18.5445,36.52725 18.342,36.63825 18.15825,36.71475 C17.8931149,36.8306271 17.6094051,36.8981892 17.3205,36.91425 C16.9575713,36.9309676 16.5938868,36.9101066 16.23525,36.852 C16.23525,36.852 16.08525,36.9645 16.19775,37.089 C16.31025,37.2135 16.809,37.614 17.7195,37.314 C18.35625,37.089 18.94275,36.6525 19.242,36.98925 C19.479,37.314 19.6035,37.85025 18.867,38.574 C18.267,39.14775 17.5815,39.474 16.72125,39.29775 C16.2345,39.21 15.74625,38.811 15.78525,38.32275 C15.82425,37.8345 16.2225,37.69275 16.04775,37.1685 C15.948,37.06875 15.80775,37.12275 15.85725,37.33125 C15.87375,37.48875 15.87225,37.5615 15.6645,38.05275 C15.56475,38.3355 15.62025,38.8845 15.957,39.23325 C16.257,39.47475 16.58775,39.80775 17.06175,39.76575 C17.53575,39.72375 18.81675,39.25875 19.578,39.10875 C20.33925,38.95875 21.16275,38.35875 21.4125,38.31 C21.66225,38.26125 22.5015,38.19375 24.1485,38.74275 C25.08075,38.91075 30.50625,39.9585 32.58375,38.58 L32.70825,38.46375 C32.70825,38.46375 32.15625,36.3075 31.03125,35.409 C30.4545,34.968 29.1315,34.785 28.64925,35.21775 Z" id="Path" fill="#FED09E" fill-rule="nonzero"></path>
                <path d="M16.395,40.005 C16.4122857,40.0251416 16.4128912,40.0547028 16.3964445,40.0755352 C16.3799979,40.0963675 16.3511033,40.1026393 16.3275,40.0905 C16.0118387,39.9099211 15.6825932,39.7542003 15.34275,39.62475 C14.811,39.44025 14.51775,39.41925 14.38875,39.375 C14.25975,39.33075 13.60275,38.976 13.203,39.2445 C13.1766145,39.1434733 13.2232,39.037569 13.3155,38.98875 C13.3965,38.9325 13.7895,38.8515 14.07675,39.00075 C14.28225,39.0885 14.63775,39.288 14.63775,39.288 C14.63775,39.288 15.17475,39.1005 15.33075,39.0945 C15.1035454,39.1019579 14.8761051,39.0916767 14.6505,39.06375 C14.59425,39.051 14.46825,38.721 13.91925,38.712 C13.48125,38.7015 13.40625,38.805 13.40625,38.805 C13.40625,38.805 13.49325,38.493 13.93125,38.52375 C14.36925,38.5545 14.481,38.55525 14.805,38.86725 L15.279,38.649 L14.86125,38.63025 C14.7422263,38.4469539 14.5431696,38.3311391 14.325,38.31825 C14.4405,38.24325 14.664,38.15025 15.381,38.17875 C15.381,38.17875 15.3975,38.91075 15.423,39.0855 C15.7735292,39.3626816 16.0988018,39.6703854 16.395,40.005 Z" id="Path" fill="#FED09E" fill-rule="nonzero"></path>
                <path d="M16.0545,38.32425 C16.0545,38.32425 15.92025,38.73675 16.26525,38.87775 C16.55925,38.98125 17.889,39.267 18.61125,38.3805 C18.38625,38.409 18.14475,38.8545 17.19825,38.76525 C16.5975,38.72325 16.23975,38.7045 16.0545,38.32425 Z" id="Path" fill="#FED09E" fill-rule="nonzero"></path>
                <path d="M27.04275,19.1475 C27.04275,19.1475 27.3045,20.73225 27.18,21.693 C27.417,22.005 27.90375,23.6895 27.97875,25.04925 C28.35375,23.69925 28.5645,23.028 28.3275,21.43125 C28.0905,19.8345 27.04275,19.1475 27.04275,19.1475 Z" id="Path" fill="#F4CC12" fill-rule="nonzero"></path>
                <path d="M28.19025,19.584 C28.19025,19.584 29.12625,20.682 28.96425,23.115 C28.77675,25.1865 28.4775,26.50875 28.128,27.3075 C28.1782906,27.5124157 28.2116529,27.7211183 28.22775,27.9315 C28.22775,27.9315 29.51325,26.67075 30.324,23.75175 C30.174,25.236 30.2655,26.5335 28.10325,29.32875 C28.26975,30.24375 28.0785,33.32925 27.5625,35.60025 C28.0365,35.2845 28.7625,34.41075 29.25975,34.386 C29.6147732,34.3812133 29.9685668,34.4287227 30.30975,34.527 C30.30975,34.527 30.36825,34.19475 29.877,34.077 C30.34275,34.086 31.77375,34.269 32.87175,35.24175 C32.73825,34.85925 32.514,33.68625 32.58075,33.01275 C32.481,33.08775 31.9485,33.9945 30.7755,33.98775 C29.9355,33.95475 29.478,33.93825 29.478,33.93825 C29.478,33.93825 30.17625,33.81375 30.5925,33.6135 C31.00875,33.41325 32.26425,32.91525 32.32275,31.37625 C32.322914,30.7943284 32.1829707,30.2209208 31.91475,29.7045 C31.77375,29.87925 29.70225,32.133 28.887,33.8295 C28.887,33.8295 28.662,33.222 29.1615,32.26575 C29.661,31.3095 30.32625,30.4935 30.75075,29.94525 C31.07475,29.42925 31.75725,28.37025 31.7655,27.366 C31.77375,26.36175 31.5405,26.166 31.5405,26.166 C31.5405,26.166 31.0335,28.06275 29.86875,29.691 C30.102,28.791 30.4095,27.2535 30.54375,26.8215 C30.678,26.3895 30.9315,24.78 30.95625,23.88 C30.981,22.98 31.0395,21.942 29.9415,20.83575 C28.8435,19.7295 28.19025,19.584 28.19025,19.584 Z" id="Path" fill="#F4CC12" fill-rule="nonzero"></path>
                <path d="M22.86,44.4255 L23.31,45.012 C23.31,45.012 24.633,44.08875 26.0925,44.16375 C26.77875,44.226 27.0405,44.36325 27.17775,44.36325 C27.315,44.36325 28.77525,43.6395 29.61075,43.68825 C30.44625,43.737 33.1665,43.938 33.1665,43.938 C33.1665,43.938 32.63025,43.239 32.00625,43.25175 C31.38225,43.2645 31.0455,43.539 31.0455,43.539 C31.0455,43.539 30.759,42.74025 29.79825,42.89025 C28.8375,43.04025 27.72675,43.80075 27.29025,43.701 C26.85375,43.60125 26.03025,43.4265 25.581,43.1895 C25.13175,42.9525 24.333,42.915 23.88375,43.4265 C23.5640078,43.7808513 23.2220686,44.1145237 22.86,44.4255 L22.86,44.4255 Z" id="Path" fill="#FED09E" fill-rule="nonzero"></path>
                <path d="M7.21725,43.35225 C7.21725,43.35225 8.106,43.74525 8.46225,44.10225 C8.84475,44.05275 9.8265,43.85325 10.29225,43.91925 C10.72425,43.9815 12.477,44.5305 13.2975,45.0885 C13.4762565,45.2067132 13.6629489,45.3124639 13.85625,45.405 C14.95275,45.9495 17.3295,47.13 19.1955,47.496 C18.91275,46.914 18.91275,46.1985 18.71325,45.666 C18.51375,45.1335 17.96325,44.60175 17.56575,44.5185 C17.316,44.202 17.1,42.888 15.53625,43.35375 C14.451,43.6185 13.70625,43.755 13.40625,43.66875 C13.10625,43.5825 11.2665,42.60975 10.5675,42.822 C9.73575,43.08825 9.8625,43.51875 9.36375,43.51875 C8.865,43.51875 8.199,42.86175 7.21725,43.35225 Z" id="Path" fill="#FED09E" fill-rule="nonzero"></path>
                <path d="M13.56375,45.91425 C13.56375,45.91425 12.41625,47.694 9.58875,47.41425 C8.424,47.21475 7.25925,46.0335 6.63525,45.08925 C6.2445,44.32425 6.07875,44.00775 5.89575,44.00775 C7.1265,44.02425 8.457,44.0745 9.63825,44.2905 C10.8195,44.5065 11.63475,44.75625 11.78475,45.1395 C11.33475,45.222 9.80475,45.339 9.07275,44.55675 C9.3555,45.07275 9.98775,46.437 12.35025,45.3885 L13.56375,45.91425 Z" id="Path" fill="#F3CD11" fill-rule="nonzero"></path>
                <path d="M25.15875,42.23775 C25.15875,42.23775 25.54125,41.439 27.17175,41.15625 C28.80225,40.8735 29.38425,41.256 29.38425,41.256 C29.38425,41.256 27.73425,42.471 27.0885,42.504 C27.20475,42.62025 27.504,42.903 28.50225,42.3375 C29.5005,41.772 30.582,41.0235 31.896,41.3895 C31.79625,41.1735 31.3635,40.92375 30.86475,40.97325 C30.9975,40.59075 31.04775,40.2915 31.64625,40.1415 C31.94625,40.04175 32.2785,39.5415 32.2785,39.5415 C32.2979794,39.909551 32.2415609,40.2776759 32.11275,40.623 C32.0295,40.90575 32.172,41.373 32.28375,41.63775 C32.01225,41.538 31.53,41.70375 31.21425,41.9535 C30.89775,42.153 30.1995,42.519 30,42.45225 C29.6175439,42.3124378 29.1969605,42.3185797 28.81875,42.4695 C28.28625,42.6855 28.1535,43.0845 26.922,42.98475 C25.6905,42.885 25.7745,42.288 25.15875,42.23775 Z" id="Path" fill="#F4CC12" fill-rule="nonzero"></path>
                <path d="M31.48125,35.23725 C31.48125,35.23725 32.69175,36.432 32.92425,37.99575 C33.15675,39.5595 34.089,42.02175 34.455,42.38775 L34.788,42.4875 C34.788,42.4875 33.98925,39.66225 33.8565,38.862 C33.72375,38.06175 33.069,35.9715 31.48125,35.23725 Z" id="Path" fill="#F4CC12" fill-rule="nonzero"></path>
                <path d="M32.877,39.98925 C32.877,39.98925 32.3955,40.94025 32.69475,41.47275 C32.91075,41.739 33.5265,41.83875 33.5265,41.83875 C33.5265,41.83875 32.8935,40.1865 32.877,39.98925 Z" id="Path" fill="#F4CC12" fill-rule="nonzero"></path>
                <path d="M32.73375,39.73575 C32.73375,39.73575 32.78625,39.4305 32.76075,39.312 C32.73525,39.1935 32.60475,38.8935 32.63025,38.754 C32.4416161,38.9480549 32.2258779,39.1137742 31.98975,39.246 C31.557,39.501 30.58425,39.9795 28.29525,39.798 C28.67025,40.2225 28.824,40.51575 28.9545,40.55775 C29.085,40.59975 29.94675,40.54725 30.0795,40.85775 C30.3105,40.6395 30.32925,40.08225 30.76275,39.95775 C31.19625,39.83325 31.971,39.56925 32.4195,39.21525 C32.42175,39.39825 32.73375,39.73575 32.73375,39.73575 Z" id="Path" fill="#F4CC12" fill-rule="nonzero"></path>
                <path d="M14.2125,32.07375 C14.2125,32.07375 14.09625,32.589 13.63125,32.655 C13.1860572,32.7259287 12.7303078,32.6312032 12.35025,32.38875 C12.084,32.6385 11.05275,33.603 10.2375,33.8025 C9.7215,33.969 7.9875,33.86925 7.25925,34.21875 L7.248,34.2255 C6.95936235,34.3909611 6.7623439,34.6794425 6.71325,35.0085 C6.64425,35.4585 6.57675,36.16725 6.71925,36.6645 C6.94425,37.4505 7.47975,38.82225 9.027,38.274 C10.13775,37.7745 11.7345,36.876 12.57075,35.71575 C13.407,34.5555 14.52075,33.0375 14.712,32.805 C14.5785,32.47275 14.42025,32.08575 14.2125,32.07375 Z" id="Path" fill="#FACDA3" fill-rule="nonzero"></path>
                <path d="M16.575,29.553 C16.575,29.553 16.6125,30.252 16.51275,30.5385 C16.88775,30.264 17.27325,29.96475 17.38575,29.6385 L16.575,29.553 Z" id="Path" fill="#FFFFFF" fill-rule="nonzero"></path>
                <path d="M16.25625,37.54725 C16.2657893,37.7219058 16.2454989,37.8969102 16.19625,38.06475 C16.1836203,38.0989219 16.1948995,38.1373322 16.224,38.15925 C16.449,38.331 16.773,38.45925 17.784,38.40375 L17.793,38.40375 C18.1222594,38.3634206 18.4410261,38.2616594 18.73275,38.10375 C18.7420968,38.0981412 18.7502511,38.0907513 18.75675,38.082 C18.80925,38.007 19.047,37.64025 18.81225,37.3125 C18.7934961,37.2867959 18.761925,37.273762 18.7305,37.27875 C18.567,37.30725 18.3945,37.56375 18.02175,37.65375 C17.649,37.74375 16.89675,37.9785 16.39875,37.488 C16.3752254,37.4630345 16.3387069,37.4552306 16.3070329,37.4684003 C16.2753589,37.48157 16.2551389,37.5129652 16.25625,37.54725 Z" id="Path" fill="#F4CC12" fill-rule="nonzero"></path>
                <path d="M23.38125,6.696 C23.38125,6.696 24.1545,8.496 24.2295,9.9645 C24.3045,11.433 24.6045,13.00875 24.3795,13.7325 C24.1545,14.45625 23.45625,16.10325 23.1045,16.57725 C22.75275,17.05125 23.4045,17.17725 23.4045,17.17725 L25.15575,14.58 L25.73025,12.1845 L24.46425,7.5675 L23.38125,6.696 Z" id="Path"></path>
                <g id="Group" opacity="0.8" transform="translate(6.600000, 7.575000)" fill="#FFFFFF" fill-rule="nonzero">
                    <path d="M24.7695,28.92375 C24.702,29.57175 23.60475,29.65575 21.576,29.88825 C19.0305,30.237 16.269,29.772 15.237,29.62275 C13.737,28.974 13.45725,29.02275 12.79125,29.00625 C12.12525,28.98975 11.5605,29.4225 10.53,29.48925 C10.03125,29.5215 9.73425,29.4555 9.561,29.3805 C9.57534122,29.3392017 9.601403,29.3029758 9.636,29.27625 C9.99458766,29.3348168 10.3582942,29.3559303 10.72125,29.33925 C11.34525,29.3145 11.8695,28.98975 12.10575,28.86525 C13.1925,28.66575 14.73975,29.09025 15.41325,29.289 C16.08675,29.48775 18.3825,29.24025 19.0815,29.19 C21.80025,28.56525 22.05,27.64275 22.05,27.64275 C22.3035,27.41775 22.78875,27.3585 23.27475,27.41775 C24.43125,27.78 24.81975,28.4265 24.7695,28.92375 Z" id="Path"></path>
                    <path d="M24.35625,16.305 C24.348,16.605 24.31275,16.98975 24.2655,17.38125 C24.2655,16.1925 24.15075,15.28125 23.81175,14.23125 C23.442,13.0875 22.48575,12.90225 22.04475,12.88125 C21.8295,12.29175 21.591,12.012 21.591,12.012 C21.591,12.012 22.2435,12.1575 23.3415,13.26375 C24.4395,14.37 24.38175,15.405 24.35625,16.305 Z" id="Path"></path>
                    <path d="M16.30425,15.873 C16.10775,16.40925 15.92925,16.88925 15.77925,17.1795 C15.3465,18.04425 11.91975,22.4355 10.356,24.06675 C9.62154738,24.6956179 9.0665231,25.5075835 8.74725,26.42025 C7.98,27.09075 7.218,27.74175 7.19025,27.74175 C7.41525,27.4185 9.90675,23.28375 9.90675,23.28375 C9.90675,23.28375 11.247,22.3275 11.8965,21.78 C13.41825,20.355 15.303,17.451 15.939,16.4775 C16.05375,16.305 16.17675,16.0965 16.30425,15.873 Z" id="Path"></path>
                    <path d="M18.42525,11.75475 C18.4125,11.80125 18.396,11.856 18.375,11.916 C18.23925,12.084 18.08925,12.252 17.94225,12.4215 C18.1349558,11.73784 18.1153391,11.0117575 17.886,10.3395 C17.92575,10.3575 18.65625,10.7205 18.42525,11.75475 Z" id="Path"></path>
                    <path d="M26.56575,36.3645 L26.241,36.3405 C26.0796177,36.1604432 25.8796388,36.019176 25.656,35.92725 C25.1685,35.73975 24.50775,36.15225 24.50775,36.15225 C24.50775,36.15225 24.23325,35.69175 23.484,35.64075 C22.73475,35.58975 20.88975,36.4515 20.48925,36.48975 C20.08875,36.528 18.9795,35.865 18.3315,35.8395 C17.787,35.82 16.794,36.82725 16.49025,37.1505 L16.26075,36.8505 C16.6226255,36.5400936 16.9640855,36.2066502 17.283,35.85225 C17.733,35.3415 18.53025,35.379 18.9795,35.616 C19.42875,35.853 20.2545,36.02775 20.6895,36.12675 C21.1245,36.22575 22.23675,35.466 23.19675,35.316 C24.15675,35.166 24.44475,35.96625 24.44475,35.96625 C24.44475,35.96625 24.78225,35.69175 25.4055,35.679 C26.02875,35.66625 26.56575,36.3645 26.56575,36.3645 Z" id="Path"></path>
                    <path d="M11.92125,37.7265 C11.3505,37.23375 10.57125,37.24875 10.57125,37.24875 C10.4047946,36.859137 10.114928,36.5350135 9.74625,36.32625 C9.14625,36.0015 8.32125,36.70125 7.002,36.60075 C6.228,36.57525 4.7565,35.58975 4.419,35.58975 C4.0815,35.58975 3.12225,36.027 2.78475,36.13875 C2.44725,36.2505 1.9995,35.88975 1.52475,35.79 C1.281,35.73975 1.09575,35.8125 0.9135,35.919 C0.58575,35.80725 0.6135,35.77725 0.6135,35.77725 C1.59525,35.2875 2.25825,35.9445 2.75625,35.9445 C3.25425,35.9445 3.13125,35.51325 3.96075,35.247 C4.65975,35.0355 6.4995,36.00975 6.79875,36.09375 C7.098,36.17775 7.84875,36.0435 8.92875,35.77725 C10.4925,35.3115 10.70775,36.62625 10.959,36.94275 C11.2695,37.005 11.6655,37.33575 11.92125,37.7265 Z" id="Path"></path>
                    <path d="M13.41825,13.9185 C12.4185,13.35975 10.881,12.6285 8.43675,12.17475 C9.19425,12.018 10.89,11.8485 11.48625,10.44975 C11.4915,11.022 11.29725,11.91675 10.125,12.32475 C10.59825,12.37125 13.66725,13.44375 13.41825,13.9185 Z" id="Path"></path>
                    <path d="M6.43125,25.07475 C6.22465366,25.3065219 6.00531428,25.5266125 5.77425,25.734 C5.32425,26.133 3.92775,27.45525 3.4155,27.36825 C2.90325,27.28125 0.35625,27.405 0.25575,28.455 C0.15525,29.505 0.48525,29.84625 0.62625,30.2175 C0.3645,29.865 0.21375,29.42625 0.1185,29.0925 C-0.02325,28.596 0.0435,27.8925 0.11175,27.43875 C0.161209968,27.1088605 0.358346009,26.8195068 0.64725,26.65275 L0.6585,26.64675 C1.39125,26.298 3.1215,26.397 3.63675,26.2305 C4.452,26.03175 5.484,25.06575 5.7495,24.81675 C5.95813249,24.9456121 6.18957569,25.033199 6.43125,25.07475 Z" id="Path"></path>
                    <path d="M7.5855,44.19525 C8.1285,44.03025 9.15225,43.578 9.9765,43.4505 C9.09075,43.79175 8.4615,44.34375 7.8765,44.3115 C7.26,44.27775 7.0275,44.26125 7.0275,44.26125 C7.0275,44.26125 8.9775,43.27425 9.1815,42.0375 C9.2000008,41.9264338 9.25678184,41.8253424 9.342,41.75175 C9.69375,41.45175 10.017,41.208 10.22325,40.87275 C10.038,41.35425 9.75225,42.042 9.54825,42.28125 C9.21525,42.66525 8.23125,43.83 7.5855,44.19525 Z" id="Path"></path>
                    <path d="M18.17625,5.9835 C17.9426848,6.95722559 17.4551191,7.85161367 16.76325,8.5755 C17.1605687,7.79473786 17.501198,6.98640105 17.7825,6.15675 C18.0075,5.4345 17.7075,3.8625 17.6325,2.3895 C17.5905,1.57275 17.3325,0.6585 17.115,0.0045 C17.2749678,0.182063114 17.3744902,0.405791526 17.39925,0.6435 C17.4225,1.27875 17.592,1.4355 17.73525,1.6095 C17.8785,1.7835 18.06,1.9905 18.11025,2.64 C18.159,3.53775 18.27525,5.055 18.17625,5.9835 Z" id="Path"></path>
                </g>
                <path d="M27.61725,26.04075 C27.2265,21.2145 26.08275,19.81575 25.49325,19.4115 C25.5581559,19.1393466 25.5965848,18.8615531 25.608,18.582 C25.8795,18.86925 27.65625,21.01125 27.61725,26.04075 Z" id="Path" fill="#FFFFFF" fill-rule="nonzero" opacity="0.8"></path>
                <path d="M14.937,20.586 C13.7205,20.661 11.5575,20.967 10.8195,22.12575 C9.7695,23.77575 9.27225,23.8215 9.27225,27.04875 C9.18825,27.81525 8.78925,29.928 8.4405,30.94875 C8.09175,31.9695 8.103,33.5235 8.103,33.5235 L8.103,33.5235 C7.64405277,33.7893158 7.25184013,34.1563899 6.95625,34.59675 L6.72675,34.93725 C6.993,34.0545 7.4505,32.47725 7.81575,31.6455 C8.016,31.01325 8.41575,29.03325 8.331,27.57 C8.24625,26.10675 8.1495,24.97425 8.931,23.16075 C9.7125,21.34725 10.506,20.48775 12.8235,20.433 C13.275,20.42175 14.0355,20.475 14.937,20.586 Z" id="Path" fill="#FFFFFF" fill-rule="nonzero"></path>
                <path d="M25.42875,21.693 C25.4347561,21.6548924 25.4087326,21.6191311 25.370625,21.613125 C25.3325174,21.6071189 25.2967561,21.6331424 25.29075,21.67125 C24.9225,23.52225 24.07875,27.318 23.11575,29.778 C21.74025,33.279 21.05025,33.9315 19.49025,35.34975 C19.4660599,35.3729823 19.4618298,35.4101421 19.4801794,35.4382169 C19.498529,35.4662917 19.5342621,35.4773317 19.56525,35.4645 C20.84625,34.8525 22.662,33.4095 23.745,29.71125 C24.76575,26.22375 25.15125,24.42525 25.42875,21.693 Z" id="Path" fill="#000000" fill-rule="nonzero"></path>
                <path d="M21.186,51.339 C20.961,51.1065 19.59525,49.65525 19.1955,48.864 C19.19318,48.8603163 19.1886991,48.858617 19.1845198,48.8598359 C19.1803406,48.8610549 19.1774759,48.8648967 19.1774998,48.86925 C19.20675,49.3725 19.54875,50.733 21.174,51.35325 C21.1778218,51.3541053 21.1818021,51.3527626 21.1843248,51.3497669 C21.1868474,51.3467712 21.1874933,51.3426205 21.186,51.339 Z" id="Path" fill="#000000" fill-rule="nonzero"></path>
            </g>
        </g>
    </g>
</svg>