<?xml version="1.0" encoding="UTF-8"?>
<svg width="115px" height="115px" viewBox="0 0 115 115" version="1.1" xmlns="http://www.w3.org/2000/svg" xmlns:xlink="http://www.w3.org/1999/xlink">
    <title>Oval</title>
    <defs>
        <rect id="path-1" x="0" y="0" width="370" height="191" rx="8"></rect>
    </defs>
    <g id="Page-1" stroke="none" stroke-width="1" fill="none" fill-rule="evenodd">
        <g id="BuddhaDashboard" transform="translate(-112.000000, -198.000000)">
            <rect id="Rectangle" fill="#16161D" x="0" y="0" width="1440" height="860"></rect>
            <g id="Group-2" transform="translate(67.000000, 161.000000)">
                <g id="Project_1.ai">
                    <mask id="mask-2" fill="white">
                        <use xlink:href="#path-1"></use>
                    </mask>
                    <use id="Mask" fill="#6926FF" xlink:href="#path-1"></use>
                    <g opacity="0.0496557327" mask="url(#mask-2)">
                        <g transform="translate(60.000000, -215.000000)">
                            <path d="M187.69575,179.421 C188.63625,180.4275 189.34575,187.56375 183.282,187.671 C177.21825,187.77825 174.42975,182.79525 174.636,176.418 C174.84225,170.04075 175.8075,159.6705 172.4415,152.18775 C169.0755,144.705 165.5115,138.468 165.165,128.997 C164.8185,119.526 168.32475,117.12525 171.204,112.497 C171.5505,111.606 169.8345,108.51225 169.422,104.12325 C169.0095,99.73425 161.87325,59.65575 200.0295,44.72325 C199.2045,38.94825 199.06425,32.9175 204.1545,26.57325 C209.24475,20.229 214.57425,17.1105 229.96875,15.741 C245.36325,14.3715 258.38175,23.562 259.75125,36.32475 C259.786198,39.0312748 259.648418,41.7372719 259.33875,44.42625 C259.33875,44.42625 285.417,56.80125 286.242,84.35625 C286.92675,97.812 285.14475,108.79275 283.635,113.18175 C286.6545,115.78875 292.55325,118.46175 288.70875,135.894 C286.6545,146.39625 280.70625,157.46775 280.6155,161.1225 C280.52475,164.77725 279.609,173.10975 280.6155,178.78575 C280.434,181.071 278.33025,186.4665 273.66075,187.03575 C268.99125,187.605 266.8875,182.64675 266.79675,179.0745 C266.79675,178.068 264.78375,177.51525 263.77725,180.17175 C262.663581,183.472301 262.10599,186.934941 262.12725,190.41825 C262.218,193.43775 262.3995,194.54325 264.7755,194.08125 C267.1515,193.61925 275.022,192.24975 281.15175,201.861 C282.8925,201.5805 287.83425,200.211 294.87975,208.17225 C296.34,208.4445 303.567,208.263 310.55475,213.94725 C312.84825,214.40925 339.74325,219.1695 348.15825,244.60425 C350.56725,252.9285 347.96025,266.51625 349.1895,269.66775 C350.41875,272.81925 356.67225,282.04275 357.03525,293.27925 C357.39825,304.51575 355.30275,313.038 355.38525,314.59725 C355.46775,316.1565 360.78075,319.54725 363.45375,337.87875 C363.86625,345.84 360.78075,351.54075 361.80375,354.7665 C362.82675,357.99225 367.26525,358.974 366.63,365.4915 C365.99475,372.009 363.88275,374.09625 364.617,377.8665 C365.35125,381.63675 368.27175,383.1795 367.72725,389.49075 C367.1745,392.32875 365.71425,393.2445 366.72075,395.71125 C367.72725,398.178 373.51875,400.158 379.29375,423.0765 C383.13825,438.31425 390.225,463.155 393.51675,467.7255 C399.19275,478.1535 420.057,481.998 421.33575,516.77175 C420.9645,528.1155 412.5495,558.3105 373.5765,565.80975 C367.34775,567.0885 352.803,568.82925 333.9765,564.44025 C332.46675,565.26525 299.805,568.7385 274.91475,563.0625 C256.476,559.58925 253.00275,556.98225 252.1365,557.667 C251.27025,558.35175 254.24025,564.15975 273.405,568.689 C272.35725,569.283 267.828,568.9695 267.828,570.339 C267.828,571.7085 272.30775,573.1275 284.61675,576.741 C289.971,577.797 293.9475,578.2095 293.997,578.71275 C294.0465,579.216 286.077,582.01275 279.40275,580.998 C272.7285,579.98325 265.122,576.23775 258.77775,576.609 C249.95025,576.99675 241.758,584.4795 235.1745,584.661 C228.591,584.8425 225.4725,585.93975 218.6745,583.473 C207.1245,580.08225 201.3495,572.03025 188.57025,571.66725 C179.421,571.395 169.5375,579.1665 162.3105,580.90725 C155.0835,582.648 149.8695,581.6415 143.8305,580.26375 C137.7915,578.886 128.5515,576.05625 122.42175,575.784 C127.2645,574.22475 153.34275,564.3495 163.77075,551.4465 C163.77075,551.4465 145.10925,564.3495 108.87525,561.78375 C91.8555,560.868 72.45975,562.1055 59.2845,561.14025 C46.10925,560.175 16.0545,559.77075 4.24875,527.934 C2.59875,519.288 -2.475,512.424 3.83625,488.54025 C11.93775,470.70375 25.113,470.29125 33.20625,466.03425 C41.2995,461.77725 52.833,453.41175 62.172,453.2715 C74.65425,452.859 79.1835,455.19375 81.38625,453.95625 C83.589,452.71875 85.635,446.67975 98.538,443.23125 C102.927,443.09925 108.966,444.88125 113.49525,442.34025 C118.0245,439.79925 121.41525,432.67125 125.532,431.66475 C129.64875,430.65825 137.907,431.56575 138.42675,430.287 C138.9465,429.00825 135.86925,423.126 137.8575,415.03275 C139.84575,406.9395 141.636,403.77975 140.3985,403.095 C139.161,402.41025 110.52525,436.788 85.272,434.58525 C77.7645,433.67775 65.87625,418.29975 64.22625,398.7225 C64.58925,384.6315 66.60225,370.5405 73.0125,357.918 C78.4353881,343.637978 82.1812385,328.776393 84.17475,313.632 C86.922,292.22325 89.298,262.944 99.02475,239.52225 C109.08975,217.01625 140.382,215.00325 148.071,216.8265 C152.6415,214.8135 161.0895,212.52825 165.891,211.431 C170.6925,210.33375 184.28025,206.283 187.506,201.531 C190.73175,196.779 193.479,188.1495 192.2415,182.1105 C191.004,176.0715 182.15175,158.367 181.401,150.20775 C180.65025,142.0485 180.50175,136.06725 177.48225,130.3005 C175.7745,127.48725 175.0485,126.1755 173.712,127.0005 C172.3755,127.8255 171.996,136.0755 173.646,141.24 C175.15575,147.35325 179.89125,157.36875 180.246,163.746 C181.005,170.8905 179.124,181.27725 182.92725,182.00325 C184.72575,182.3085 186.39225,177.87 187.69575,179.421 Z" id="Path" fill="#000000" fill-rule="nonzero"></path>
                            <path d="M182.0445,316.965 C182.53125,318.82125 196.32525,319.54725 198.33825,319.00275 C204.74025,315.15825 226.512,281.6715 242.7975,254.22375 C262.746,220.18425 261.64875,210.8535 262.5975,203.1645 C254.5455,200.7885 254.3475,194.01525 253.99275,191.27625 C230.94225,210.11925 208.98075,194.931 201.11025,189.62625 C198.73425,213.048 175.131,215.2425 165.429,217.2555 C200.904,223.8555 219.054,235.74375 229.11075,241.593 C203.30475,230.61225 156.27975,224.39175 141.0915,224.763 C115.632,225.3735 106.8705,234.828 98.274,254.76825 C89.6775,274.7085 90.7665,287.15775 91.674,303.26175 C92.5815,319.36575 88.20075,341.14575 86.00625,348.09225 C81.98025,357.24975 83.16825,359.64225 80.23125,369.3195 L89.1495,368.775 C92.1070673,367.927498 95.1518433,367.420958 98.2245,367.26525 C103.722521,367.031737 109.066203,365.377469 113.7345,362.46375 C118.80825,359.16375 125.67225,351.34275 131.0595,348.051 C131.0595,343.926 129.822,312.36975 132.297,304.953 C128.865,296.307 124.46775,278.19 119.25375,274.89825 C123.37875,274.48575 131.62875,274.2135 133.52625,293.2875 C134.574,290.3175 149.91075,285.0375 157.96275,289.1625 C172.1115,296.43075 182.0445,316.965 182.0445,316.965 Z" id="Path" fill="#FACDA3" fill-rule="nonzero"></path>
                            <path d="M162.7725,275.12925 C162.7725,275.583 165.33825,275.77275 167.6235,280.34325 C171.006,273.66075 173.316,269.86575 174.57825,267.72075 C176.088,265.155 179.289,260.08125 181.83825,261.86325 C184.266662,263.34733 185.441619,266.24288 184.734,268.9995 C183.99975,274.857 176.8965,285.9285 176.70675,290.862 C176.70675,290.862 180.83175,291.8685 178.53825,297.363 C180.73275,298.551 183.942,299.64825 183.2985,301.01775 C182.655,302.38725 180.18825,307.51875 180.73275,311.9985 C181.27725,316.47825 181.37625,319.3245 181.37625,319.3245 C180.384586,322.427129 179.905301,325.67066 179.95725,328.9275 C180.2295,333.45675 180.36975,346.35975 167.58225,358.98225 C163.73775,364.47675 137.5275,415.57725 103.488,428.19975 C85.404,427.19325 78.738,425.601 75.24825,418.13475 C67.2705,401.1315 70.57875,386.0175 70.57875,386.0175 C70.57875,386.0175 79.09275,367.62825 100.5015,367.356 C110.5665,364.79025 117.52125,363.78375 131.0265,347.13525 C129.74775,342.74625 131.274,342.56475 132.18975,331.03125 C133.1055,319.49775 132.627,295.944 133.83975,292.5615 C135.0525,289.179 136.82625,284.97975 137.214,283.72575 C139.49925,276.30075 140.2335,270.52575 144.078,270.831 C147.9225,271.13625 147.05625,282.86775 147.05625,282.86775 L149.41575,279.0645 C150.922793,275.656452 152.60247,272.327388 154.44825,269.09025 C155.859,266.84625 157.28625,263.7855 158.88675,261.9045 C159.996961,260.574117 161.899201,260.226993 163.40775,261.0795 C165.32175,262.218 166.914,264.6435 165.528,268.719 C164.812456,270.937396 163.889895,273.083593 162.7725,275.12925 Z" id="Path" fill="#000000" fill-rule="nonzero"></path>
                            <path d="M156.3375,352.81125 C156.3375,352.81125 155.05875,358.479 149.94375,359.205 C145.04663,359.985215 140.033385,358.943236 135.85275,356.27625 C132.924,359.0235 121.58025,369.633 112.6125,371.8275 C106.9365,373.659 87.8625,372.56175 79.85175,376.40625 L79.728,376.4805 C76.5529858,378.300572 74.3857829,381.473867 73.84575,385.0935 C73.08675,390.0435 72.34425,397.83975 73.91175,403.3095 C76.38675,411.9555 82.27725,427.04475 99.297,421.014 C111.51525,415.5195 129.0795,405.636 138.27825,392.87325 C147.477,380.1105 159.72825,363.4125 161.832,360.855 C160.3635,357.20025 158.62275,352.94325 156.3375,352.81125 Z" id="Path" fill="#FACDA3" fill-rule="nonzero"></path>
                            <g id="Group" opacity="0.8" stroke-width="1" fill="none" fill-rule="evenodd" transform="translate(72.600000, 83.325000)">
                                <path d="M70.74375,275.82225 C68.4711903,278.371741 66.0584571,280.792737 63.51675,283.074 C58.56675,287.463 43.20525,302.00775 37.5705,301.05075 C31.93575,300.09375 3.91875,301.455 2.81325,313.005 C1.70775,324.555 5.33775,328.30875 6.88875,332.3925 C4.0095,328.515 2.35125,323.68875 1.3035,320.0175 C-0.25575,314.556 0.4785,306.8175 1.22925,301.82625 C1.77330965,298.197466 3.9418061,295.014575 7.11975,293.18025 L7.2435,293.11425 C15.30375,289.278 34.3365,290.367 40.00425,288.5355 C48.972,286.34925 60.324,275.72325 63.2445,272.98425 C65.5394574,274.401733 68.0853326,275.365189 70.74375,275.82225 Z" id="Path" fill="#FFFFFF" fill-rule="nonzero"></path>
                            </g>
                            <path d="M164.307,226.446 C150.9255,227.271 127.1325,230.637 119.0145,243.38325 C107.4645,261.53325 101.99475,262.0365 101.99475,297.53625 C101.07075,305.96775 96.68175,329.208 92.8455,340.43625 C89.00925,351.6645 89.133,368.7585 89.133,368.7585 L89.133,368.7585 C84.0845804,371.682473 79.7702414,375.720288 76.51875,380.56425 L73.99425,384.30975 C76.923,374.5995 81.9555,357.24975 85.97325,348.1005 C88.176,341.14575 92.57325,319.36575 91.641,303.27 C90.70875,287.17425 89.6445,274.71675 98.241,254.76825 C106.8375,234.81975 115.566,225.36525 141.0585,224.763 C146.025,224.63925 154.3905,225.225 164.307,226.446 Z" id="Path" fill="#FFFFFF" fill-rule="nonzero"></path>
                        </g>
                    </g>
                </g>
                <circle id="Oval" stroke="#783CFF" stroke-width="10.8" stroke-linejoin="round" cx="102.75" cy="94.75" r="51.75"></circle>
                <path d="M102.75,43 C74.1692642,43 51,66.1692642 51,94.75 C51,123.330736 74.1692642,146.5 102.75,146.5 C114.18949,146.5 124.762054,142.78825 133.329047,136.503395 C146.166063,127.085996 154.5,111.891246 154.5,94.75" id="Path" stroke="#FEF4AD" stroke-width="10.8" stroke-linecap="round" stroke-linejoin="round"></path>
            </g>
        </g>
    </g>
</svg>