<?xml version="1.0" encoding="UTF-8"?>
<svg width="370px" height="191px" viewBox="0 0 370 191" version="1.1" xmlns="http://www.w3.org/2000/svg" xmlns:xlink="http://www.w3.org/1999/xlink">
    <title>Project_1.ai</title>
    <defs>
        <rect id="path-1" x="0" y="0" width="370" height="191" rx="8"></rect>
    </defs>
    <g id="Page-1" stroke="none" stroke-width="1" fill="none" fill-rule="evenodd">
        <g id="BuddhaDashboard" transform="translate(-67.000000, -161.000000)">
            <g id="Project_1.ai" transform="translate(67.000000, 161.000000)">
                <mask id="mask-2" fill="white">
                    <use xlink:href="#path-1"></use>
                </mask>
                <use id="Mask" fill="#6926FF" xlink:href="#path-1"></use>
                <g opacity="0.0496557327" mask="url(#mask-2)">
                    <g transform="translate(60.000000, -215.000000)">
                        <path d="M187.69575,179.421 C188.63625,180.4275 189.34575,187.56375 183.282,187.671 C177.21825,187.77825 174.42975,182.79525 174.636,176.418 C174.84225,170.04075 175.8075,159.6705 172.4415,152.18775 C169.0755,144.705 165.5115,138.468 165.165,128.997 C164.8185,119.526 168.32475,117.12525 171.204,112.497 C171.5505,111.606 169.8345,108.51225 169.422,104.12325 C169.0095,99.73425 161.87325,59.65575 200.0295,44.72325 C199.2045,38.94825 199.06425,32.9175 204.1545,26.57325 C209.24475,20.229 214.57425,17.1105 229.96875,15.741 C245.36325,14.3715 258.38175,23.562 259.75125,36.32475 C259.786198,39.0312748 259.648418,41.7372719 259.33875,44.42625 C259.33875,44.42625 285.417,56.80125 286.242,84.35625 C286.92675,97.812 285.14475,108.79275 283.635,113.18175 C286.6545,115.78875 292.55325,118.46175 288.70875,135.894 C286.6545,146.39625 280.70625,157.46775 280.6155,161.1225 C280.52475,164.77725 279.609,173.10975 280.6155,178.78575 C280.434,181.071 278.33025,186.4665 273.66075,187.03575 C268.99125,187.605 266.8875,182.64675 266.79675,179.0745 C266.79675,178.068 264.78375,177.51525 263.77725,180.17175 C262.663581,183.472301 262.10599,186.934941 262.12725,190.41825 C262.218,193.43775 262.3995,194.54325 264.7755,194.08125 C267.1515,193.61925 275.022,192.24975 281.15175,201.861 C282.8925,201.5805 287.83425,200.211 294.87975,208.17225 C296.34,208.4445 303.567,208.263 310.55475,213.94725 C312.84825,214.40925 339.74325,219.1695 348.15825,244.60425 C350.56725,252.9285 347.96025,266.51625 349.1895,269.66775 C350.41875,272.81925 356.67225,282.04275 357.03525,293.27925 C357.39825,304.51575 355.30275,313.038 355.38525,314.59725 C355.46775,316.1565 360.78075,319.54725 363.45375,337.87875 C363.86625,345.84 360.78075,351.54075 361.80375,354.7665 C362.82675,357.99225 367.26525,358.974 366.63,365.4915 C365.99475,372.009 363.88275,374.09625 364.617,377.8665 C365.35125,381.63675 368.27175,383.1795 367.72725,389.49075 C367.1745,392.32875 365.71425,393.2445 366.72075,395.71125 C367.72725,398.178 373.51875,400.158 379.29375,423.0765 C383.13825,438.31425 390.225,463.155 393.51675,467.7255 C399.19275,478.1535 420.057,481.998 421.33575,516.77175 C420.9645,528.1155 412.5495,558.3105 373.5765,565.80975 C367.34775,567.0885 352.803,568.82925 333.9765,564.44025 C332.46675,565.26525 299.805,568.7385 274.91475,563.0625 C256.476,559.58925 253.00275,556.98225 252.1365,557.667 C251.27025,558.35175 254.24025,564.15975 273.405,568.689 C272.35725,569.283 267.828,568.9695 267.828,570.339 C267.828,571.7085 272.30775,573.1275 284.61675,576.741 C289.971,577.797 293.9475,578.2095 293.997,578.71275 C294.0465,579.216 286.077,582.01275 279.40275,580.998 C272.7285,579.98325 265.122,576.23775 258.77775,576.609 C249.95025,576.99675 241.758,584.4795 235.1745,584.661 C228.591,584.8425 225.4725,585.93975 218.6745,583.473 C207.1245,580.08225 201.3495,572.03025 188.57025,571.66725 C179.421,571.395 169.5375,579.1665 162.3105,580.90725 C155.0835,582.648 149.8695,581.6415 143.8305,580.26375 C137.7915,578.886 128.5515,576.05625 122.42175,575.784 C127.2645,574.22475 153.34275,564.3495 163.77075,551.4465 C163.77075,551.4465 145.10925,564.3495 108.87525,561.78375 C91.8555,560.868 72.45975,562.1055 59.2845,561.14025 C46.10925,560.175 16.0545,559.77075 4.24875,527.934 C2.59875,519.288 -2.475,512.424 3.83625,488.54025 C11.93775,470.70375 25.113,470.29125 33.20625,466.03425 C41.2995,461.77725 52.833,453.41175 62.172,453.2715 C74.65425,452.859 79.1835,455.19375 81.38625,453.95625 C83.589,452.71875 85.635,446.67975 98.538,443.23125 C102.927,443.09925 108.966,444.88125 113.49525,442.34025 C118.0245,439.79925 121.41525,432.67125 125.532,431.66475 C129.64875,430.65825 137.907,431.56575 138.42675,430.287 C138.9465,429.00825 135.86925,423.126 137.8575,415.03275 C139.84575,406.9395 141.636,403.77975 140.3985,403.095 C139.161,402.41025 110.52525,436.788 85.272,434.58525 C77.7645,433.67775 65.87625,418.29975 64.22625,398.7225 C64.58925,384.6315 66.60225,370.5405 73.0125,357.918 C78.4353881,343.637978 82.1812385,328.776393 84.17475,313.632 C86.922,292.22325 89.298,262.944 99.02475,239.52225 C109.08975,217.01625 140.382,215.00325 148.071,216.8265 C152.6415,214.8135 161.0895,212.52825 165.891,211.431 C170.6925,210.33375 184.28025,206.283 187.506,201.531 C190.73175,196.779 193.479,188.1495 192.2415,182.1105 C191.004,176.0715 182.15175,158.367 181.401,150.20775 C180.65025,142.0485 180.50175,136.06725 177.48225,130.3005 C175.7745,127.48725 175.0485,126.1755 173.712,127.0005 C172.3755,127.8255 171.996,136.0755 173.646,141.24 C175.15575,147.35325 179.89125,157.36875 180.246,163.746 C181.005,170.8905 179.124,181.27725 182.92725,182.00325 C184.72575,182.3085 186.39225,177.87 187.69575,179.421 Z" id="Path" fill="#000000" fill-rule="nonzero"></path>
                        <path d="M140.96775,431.4915 C141.14925,425.271 148.2855,408.06975 149.9355,402.9465 C153.9615,398.18625 186.5325,370.3755 205.2105,349.8825 C234.0855,314.74575 243.9855,290.04525 249.315,273.94125 C237.0555,301.9335 191.565,353.22375 184.965,359.535 C178.365,365.84625 152.30325,388.4925 151.7505,388.4925 C154.2255,384.92025 181.62375,339.44625 181.62375,339.44625 C181.62375,339.44625 196.32525,328.9275 203.4615,322.905 C220.20075,307.23 240.92475,275.286 247.929,264.5775 C254.93325,253.869 264.84975,233.05425 268.9665,222.8985 C274.2795,209.54175 269.33775,197.05125 269.33775,197.05125 C269.33775,197.05125 277.8435,200.94525 275.286,212.652 C272.72025,222.552 251.3115,260.7825 253.143,269.577 C261.195,253.84425 270.70725,234.102 275.09625,229.152 C278.2065,224.4 281.69625,210.309 281.69625,204.4515 C284.8065,207.7515 305.85225,233.178 303.65775,293.5515 C301.455,334.54575 300.729,377.7015 286.4565,395.66175 C290.11125,380.292 298.16325,351.01275 294.5085,330.1485 C291.94275,346.2525 284.25375,385.044 274.3785,398.21925 C269.25525,399.32475 254.793,401.28825 254.52075,398.9535 C254.52075,398.9535 296.373,349.31325 292.83375,256.6575 C292.85881,256.201865 292.50976,255.812185 292.054125,255.787125 C291.59849,255.762065 291.20881,256.111115 291.18375,256.56675 C289.8225,266.772 286.968,285.2025 281.28375,311.84175 C272.1345,355.0305 265.914,374.42625 247.98675,394.19325 C243.96075,398.94525 235.4055,399.2175 229.63875,396.891 C221.01622,393.503298 211.457838,393.356742 202.7355,396.4785 C192.0105,400.455 179.4045,404.85225 179.4045,404.85225 L171.85575,431.33475 C171.85575,431.33475 147.15525,432.15975 145.233,432.15975 L143.34375,432.15975 L140.96775,431.4915 Z" id="Path" fill="#F4CC12" fill-rule="nonzero"></path>
                        <path d="M182.0445,316.965 C182.53125,318.82125 196.32525,319.54725 198.33825,319.00275 C204.74025,315.15825 226.512,281.6715 242.7975,254.22375 C262.746,220.18425 261.64875,210.8535 262.5975,203.1645 C254.5455,200.7885 254.3475,194.01525 253.99275,191.27625 C230.94225,210.11925 208.98075,194.931 201.11025,189.62625 C198.73425,213.048 175.131,215.2425 165.429,217.2555 C200.904,223.8555 219.054,235.74375 229.11075,241.593 C203.30475,230.61225 156.27975,224.39175 141.0915,224.763 C115.632,225.3735 106.8705,234.828 98.274,254.76825 C89.6775,274.7085 90.7665,287.15775 91.674,303.26175 C92.5815,319.36575 88.20075,341.14575 86.00625,348.09225 C81.98025,357.24975 83.16825,359.64225 80.23125,369.3195 L89.1495,368.775 C92.1070673,367.927498 95.1518433,367.420958 98.2245,367.26525 C103.722521,367.031737 109.066203,365.377469 113.7345,362.46375 C118.80825,359.16375 125.67225,351.34275 131.0595,348.051 C131.0595,343.926 129.822,312.36975 132.297,304.953 C128.865,296.307 124.46775,278.19 119.25375,274.89825 C123.37875,274.48575 131.62875,274.2135 133.52625,293.2875 C134.574,290.3175 149.91075,285.0375 157.96275,289.1625 C172.1115,296.43075 182.0445,316.965 182.0445,316.965 Z" id="Path" fill="#FACDA3" fill-rule="nonzero"></path>
                        <path d="M162.7725,275.12925 C162.7725,275.583 165.33825,275.77275 167.6235,280.34325 C171.006,273.66075 173.316,269.86575 174.57825,267.72075 C176.088,265.155 179.289,260.08125 181.83825,261.86325 C184.266662,263.34733 185.441619,266.24288 184.734,268.9995 C183.99975,274.857 176.8965,285.9285 176.70675,290.862 C176.70675,290.862 180.83175,291.8685 178.53825,297.363 C180.73275,298.551 183.942,299.64825 183.2985,301.01775 C182.655,302.38725 180.18825,307.51875 180.73275,311.9985 C181.27725,316.47825 181.37625,319.3245 181.37625,319.3245 C180.384586,322.427129 179.905301,325.67066 179.95725,328.9275 C180.2295,333.45675 180.36975,346.35975 167.58225,358.98225 C163.73775,364.47675 137.5275,415.57725 103.488,428.19975 C85.404,427.19325 78.738,425.601 75.24825,418.13475 C67.2705,401.1315 70.57875,386.0175 70.57875,386.0175 C70.57875,386.0175 79.09275,367.62825 100.5015,367.356 C110.5665,364.79025 117.52125,363.78375 131.0265,347.13525 C129.74775,342.74625 131.274,342.56475 132.18975,331.03125 C133.1055,319.49775 132.627,295.944 133.83975,292.5615 C135.0525,289.179 136.82625,284.97975 137.214,283.72575 C139.49925,276.30075 140.2335,270.52575 144.078,270.831 C147.9225,271.13625 147.05625,282.86775 147.05625,282.86775 L149.41575,279.0645 C150.922793,275.656452 152.60247,272.327388 154.44825,269.09025 C155.859,266.84625 157.28625,263.7855 158.88675,261.9045 C159.996961,260.574117 161.899201,260.226993 163.40775,261.0795 C165.32175,262.218 166.914,264.6435 165.528,268.719 C164.812456,270.937396 163.889895,273.083593 162.7725,275.12925 Z" id="Path" fill="#000000" fill-rule="nonzero"></path>
                        <path d="M169.917,303.633 C169.917,303.633 161.06475,303.42675 157.69875,304.524 C156.87375,301.917 153.9285,293.47725 158.3175,281.259 C159.555,278.2395 161.82375,275.22 164.0925,277.959 C166.36125,280.698 168.894,286.81125 170.27175,288.387 C171.6495,289.96275 174.39675,293.21325 178.09275,293.39475 C179.74275,293.85675 177.68025,296.11725 175.20525,296.4885 C172.73025,296.85975 168.98475,294.92925 167.1615,293.74125 C165.33825,292.55325 159.38175,287.05875 159.38175,287.05875 C159.38175,287.05875 161.1225,290.72175 163.317,292.182 C163.68,294.56625 164.505,301.51275 164.505,301.51275 C164.951178,299.535194 165.501952,297.582701 166.155,295.6635 C166.881,296.3895 168.069,298.1385 172.46625,299.6895 C171.508527,300.930972 170.655832,302.250028 169.917,303.633 Z" id="Path" fill="#FECFA1" fill-rule="nonzero"></path>
                        <path d="M172.64775,286.92675 C173.094081,287.298739 173.690982,287.435726 174.254848,287.295574 C174.818713,287.155423 175.282018,286.754916 175.50225,286.21725 C176.418,283.97325 177.91125,280.6815 179.4375,277.14225 C181.038,273.438 182.26725,271.54875 182.82825,268.7685 C183.08871,267.610015 183.008485,266.400918 182.59725,265.287 C182.395938,264.720831 181.92746,264.290996 181.346095,264.139049 C180.76473,263.987101 180.145845,264.132738 179.69325,264.528 C178.761,265.353 177.8535,266.92875 176.14575,270.138 C173.55525,275.01375 172.02075,277.98375 169.8015,281.89425 C169.452113,282.50995 169.49071,283.272239 169.9005,283.8495 C170.649321,285.012887 171.576389,286.051314 172.64775,286.92675 Z" id="Path" fill="#FECFA1" fill-rule="nonzero"></path>
                        <path d="M152.691,355.905 C152.691,355.905 142.9065,356.27625 139.2435,349.77525 C135.5805,343.27425 136.67775,332.0295 136.67775,326.7165 C136.67775,321.4035 137.13975,299.91225 138.7815,289.84725 C139.194,287.3145 141.8175,275.9625 144.5565,277.629 C146.2065,278.6355 144.96075,289.113 144.13575,292.68525 C143.3685,296.043 142.07325,302.89875 143.517,308.0055 C143.537707,308.103417 143.537707,308.204583 143.517,308.3025 C143.2035,310.14225 140.514,311.4375 140.514,311.4375 C140.514,311.4375 160.677,305.90175 167.92875,307.1145 C168.260588,307.173371 168.488697,307.481136 168.4485,307.81575 C168.07725,310.9425 167.4255,316.14 168.7785,319.89375 C168.849338,320.070554 168.843335,320.268873 168.761933,320.441069 C168.680532,320.613264 168.531088,320.743775 168.3495,320.80125 C164.01,322.13775 156.97275,325.644 155.3805,332.574 C155.309463,332.871263 155.449154,333.178836 155.719741,333.320943 C155.990327,333.463049 156.32284,333.403468 156.52725,333.17625 C159.53025,329.703 164.33175,325.281 173.58,322.76475 C173.914757,322.679455 174.119992,322.342284 174.042,322.00575 C172.623,316.1565 171.204,307.60125 175.00725,302.379 C176.19525,300.6465 179.7675,301.0095 178.85175,303.8475 C177.49131,308.121222 177.323014,312.685189 178.365,317.0475 C178.385524,317.142656 178.385524,317.241094 178.365,317.33625 C177.705,319.61325 176.3025,322.74825 176.57475,330.42075 C176.847,336.59175 174.6525,347.84475 169.14975,353.47125 C167.23575,355.377 164.4555,357.9675 158.037,356.1195 C157.938697,356.102884 157.838303,356.102884 157.74,356.1195 C153.7635,356.3175 152.691,355.905 152.691,355.905 Z" id="Path" fill="#FECFA1" fill-rule="nonzero"></path>
                        <path d="M148.8795,307.065 C148.442431,307.18294 147.975859,307.11027 147.595363,306.864991 C147.214867,306.619713 146.956041,306.224771 146.883,305.778 C146.36325,302.70075 145.497,296.05125 146.77575,291.093 C148.317165,284.800466 150.750815,278.760791 154.00275,273.1575 C157.30275,267.531 160.60275,260.03175 163.3335,263.736 C165.12375,267.036 161.733,272.88525 160.1325,274.8075 C156.321502,279.444928 153.985537,285.116753 153.42525,291.093 C152.84775,298.617 152.86425,300.24225 153.549,304.11975 C153.676024,304.901799 153.229254,305.663733 152.48475,305.93475 C150.9915,306.46275 149.7705,306.82575 148.8795,307.065 Z" id="Path" fill="#FECFA1" fill-rule="nonzero"></path>
                        <path d="M186.1365,442.29075 C186.1365,442.29075 177.21,442.70325 170.214,440.3685 C163.218,438.03375 160.94925,438.24 158.07,436.73025 C155.19075,435.2205 148.2525,431.58225 144.8205,431.99475 C144.8205,429.38775 143.1705,423.489 154.82775,421.26975 C156.47775,419.892 160.81725,414.45525 169.4715,418.43175 C170.841,415.5525 171.55875,411.312 172.10325,410.39625 C172.414611,409.845466 172.647846,409.254049 172.79625,408.639 C173.2335,406.989 174.33075,406.8735 176.0055,406.6755 L176.11275,406.5105 C176.720274,405.522313 177.761719,404.88213 178.91775,404.78625 C179.19,404.78625 179.487,404.78625 179.82525,404.78625 C182.5725,404.95125 190.64925,403.5735 201.0195,398.508 C204.444047,396.844452 208.185904,395.935715 211.992,395.84325 C218.23725,395.6865 227.44425,396.066 234.85275,398.6565 C239.88742,399.669741 244.974516,400.402371 250.0905,400.851 L246.114,427.47375 C246.114,427.47375 240.339,425.69175 237.6,426.3765 C234.861,427.06125 230.3235,431.5905 213.7245,435.57525 C195.46725,438.72675 195.46725,441.05325 186.1365,442.29075 Z" id="Path" fill="#000000" fill-rule="nonzero"></path>
                        <path d="M315.14175,387.39525 C315.14175,387.39525 312.40275,397.551 282.48,404.415 C274.791,404.9595 249.53775,407.715 242.12925,405.51225 C234.890288,403.28312 227.474049,401.676774 219.9615,400.71075 C215.226,400.1745 209.65725,400.092 205.887,400.818 C203.9895,401.79975 201.762,403.02075 199.74075,403.86225 C196.824264,405.136898 193.703456,405.880081 190.5255,406.05675 C186.533285,406.240643 182.532754,406.011173 178.58775,405.372 C178.58775,405.372 176.93775,406.6095 178.17525,407.979 C179.41275,409.3485 184.899,413.754 194.9145,410.454 C201.91875,407.979 208.37025,403.1775 211.662,406.88175 C214.269,410.454 215.6385,416.35275 207.537,424.314 C200.937,430.62525 193.3965,434.214 183.93375,432.27525 C178.5795,431.31 173.20875,426.921 173.63775,421.55025 C174.06675,416.1795 178.4475,414.62025 176.52525,408.8535 C175.428,407.75625 173.88525,408.35025 174.42975,410.64375 C174.61125,412.37625 174.59475,413.1765 172.3095,418.58025 C171.21225,421.6905 171.82275,427.7295 175.527,431.56575 C178.827,434.22225 182.46525,437.88525 187.67925,437.42325 C192.89325,436.96125 206.98425,431.84625 215.358,430.19625 C223.73175,428.54625 232.79025,421.94625 235.5375,421.41 C238.28475,420.87375 247.5165,420.13125 265.6335,426.17025 C275.88825,428.01825 335.56875,439.5435 358.42125,424.38 L359.79075,423.10125 C359.79075,423.10125 353.71875,399.3825 341.34375,389.499 C334.9995,384.648 320.4465,382.635 315.14175,387.39525 Z" id="Path" fill="#FED09E" fill-rule="nonzero"></path>
                        <path d="M297.47025,210.6225 C297.47025,210.6225 300.3495,228.05475 298.98,238.623 C301.587,242.055 306.94125,260.5845 307.76625,275.54175 C311.89125,260.69175 314.2095,253.308 311.6025,235.74375 C308.9955,218.1795 297.47025,210.6225 297.47025,210.6225 Z" id="Path" fill="#F4CC12" fill-rule="nonzero"></path>
                        <path d="M310.09275,215.424 C310.09275,215.424 320.38875,227.502 318.60675,254.265 C316.54425,277.0515 313.2525,291.59625 309.408,300.3825 C309.961196,302.636572 310.328182,304.932301 310.50525,307.2465 C310.50525,307.2465 324.64575,293.37825 333.564,261.26925 C331.914,277.596 332.9205,291.8685 309.13575,322.61625 C310.96725,332.68125 308.8635,366.62175 303.1875,391.60275 C308.4015,388.1295 316.3875,378.51825 321.85725,378.246 C325.762505,378.193346 329.654235,378.71595 333.40725,379.797 C333.40725,379.797 334.05075,376.14225 328.647,374.847 C333.77025,374.946 349.51125,376.959 361.58925,387.65925 C360.12075,383.45175 357.654,370.54875 358.38825,363.14025 C357.291,363.96525 351.4335,373.9395 338.5305,373.86525 C329.2905,373.50225 324.258,373.32075 324.258,373.32075 C324.258,373.32075 331.93875,371.95125 336.5175,369.7485 C341.09625,367.54575 354.90675,362.06775 355.55025,345.13875 C355.552054,338.737612 354.012678,332.430129 351.06225,326.7495 C349.51125,328.67175 326.72475,353.463 317.757,372.1245 C317.757,372.1245 315.282,365.442 320.7765,354.92325 C326.271,344.4045 333.58875,335.4285 338.25825,329.39775 C341.82225,323.72175 349.32975,312.07275 349.4205,301.026 C349.51125,289.97925 346.9455,287.826 346.9455,287.826 C346.9455,287.826 341.3685,308.69025 328.55625,326.601 C331.122,316.701 334.5045,299.7885 335.98125,295.0365 C337.458,290.2845 340.2465,272.58 340.51875,262.68 C340.791,252.78 341.4345,241.362 329.3565,229.19325 C317.2785,217.0245 310.09275,215.424 310.09275,215.424 Z" id="Path" fill="#F4CC12" fill-rule="nonzero"></path>
                        <path d="M156.3375,352.81125 C156.3375,352.81125 155.05875,358.479 149.94375,359.205 C145.04663,359.985215 140.033385,358.943236 135.85275,356.27625 C132.924,359.0235 121.58025,369.633 112.6125,371.8275 C106.9365,373.659 87.8625,372.56175 79.85175,376.40625 L79.728,376.4805 C76.5529858,378.300572 74.3857829,381.473867 73.84575,385.0935 C73.08675,390.0435 72.34425,397.83975 73.91175,403.3095 C76.38675,411.9555 82.27725,427.04475 99.297,421.014 C111.51525,415.5195 129.0795,405.636 138.27825,392.87325 C147.477,380.1105 159.72825,363.4125 161.832,360.855 C160.3635,357.20025 158.62275,352.94325 156.3375,352.81125 Z" id="Path" fill="#FACDA3" fill-rule="nonzero"></path>
                        <path d="M182.325,325.083 C182.325,325.083 182.7375,332.772 181.64025,335.9235 C185.76525,332.904 190.00575,329.61225 191.24325,326.0235 L182.325,325.083 Z" id="Path" fill="#FFFFFF" fill-rule="nonzero"></path>
                        <g id="Group" opacity="0.8" stroke-width="1" fill="none" fill-rule="evenodd" transform="translate(72.600000, 83.325000)">
                            <path d="M272.4645,318.16125 C271.722,325.28925 259.65225,326.21325 237.336,328.77075 C209.3355,332.607 178.959,327.492 167.607,325.85025 C151.107,318.714 148.02975,319.25025 140.70375,319.06875 C133.37775,318.88725 127.1655,323.6475 115.83,324.38175 C110.34375,324.7365 107.07675,324.0105 105.171,323.1855 C105.328753,322.731219 105.615433,322.332734 105.996,322.03875 C109.940464,322.682984 113.941236,322.915234 117.93375,322.73175 C124.79775,322.4595 130.5645,318.88725 133.16325,317.51775 C145.1175,315.32325 162.13725,319.99275 169.54575,322.179 C176.95425,324.36525 202.2075,321.64275 209.8965,321.09 C239.80275,314.21775 242.55,304.07025 242.55,304.07025 C245.3385,301.59525 250.67625,300.9435 256.02225,301.59525 C268.74375,305.58 273.01725,312.6915 272.4645,318.16125 Z" id="Path" fill="#FFFFFF" fill-rule="nonzero"></path>
                            <path d="M179.34675,174.603 C177.18525,180.50175 175.22175,185.78175 173.57175,188.9745 C168.8115,198.48675 131.11725,246.7905 113.916,264.73425 C105.837021,271.651797 99.7317541,280.583418 96.21975,290.62275 C87.78,297.99825 79.398,305.15925 79.09275,305.15925 C81.56775,301.6035 108.97425,256.12125 108.97425,256.12125 C108.97425,256.12125 123.717,245.6025 130.8615,239.58 C147.60075,223.905 168.333,191.961 175.329,181.2525 C176.59125,179.355 177.94425,177.0615 179.34675,174.603 Z" id="Path" fill="#FFFFFF" fill-rule="nonzero"></path>
                            <path d="M202.67775,129.30225 C202.5375,129.81375 202.356,130.416 202.125,131.076 C200.63175,132.924 198.98175,134.772 197.36475,136.6365 C199.484514,129.11624 199.26873,121.129333 196.746,113.7345 C197.18325,113.9325 205.21875,117.9255 202.67775,129.30225 Z" id="Path" fill="#FFFFFF" fill-rule="nonzero"></path>
                            <path d="M147.60075,153.1035 C136.6035,146.95725 119.691,138.9135 92.80425,133.92225 C101.13675,132.198 119.79,130.3335 126.34875,114.94725 C126.4065,121.242 124.26975,131.08425 111.375,135.57225 C116.58075,136.08375 150.33975,147.88125 147.60075,153.1035 Z" id="Path" fill="#FFFFFF" fill-rule="nonzero"></path>
                            <path d="M70.74375,275.82225 C68.4711903,278.371741 66.0584571,280.792737 63.51675,283.074 C58.56675,287.463 43.20525,302.00775 37.5705,301.05075 C31.93575,300.09375 3.91875,301.455 2.81325,313.005 C1.70775,324.555 5.33775,328.30875 6.88875,332.3925 C4.0095,328.515 2.35125,323.68875 1.3035,320.0175 C-0.25575,314.556 0.4785,306.8175 1.22925,301.82625 C1.77330965,298.197466 3.9418061,295.014575 7.11975,293.18025 L7.2435,293.11425 C15.30375,289.278 34.3365,290.367 40.00425,288.5355 C48.972,286.34925 60.324,275.72325 63.2445,272.98425 C65.5394574,274.401733 68.0853326,275.365189 70.74375,275.82225 Z" id="Path" fill="#FFFFFF" fill-rule="nonzero"></path>
                        </g>
                        <path d="M303.78975,286.44825 C299.4915,233.3595 286.91025,217.97325 280.42575,213.5265 C281.139714,210.532813 281.562433,207.477084 281.688,204.402 C284.6745,207.56175 304.21875,231.12375 303.78975,286.44825 Z" id="Path" fill="#FFFFFF" fill-rule="nonzero" opacity="0.8"></path>
                        <path d="M164.307,226.446 C150.9255,227.271 127.1325,230.637 119.0145,243.38325 C107.4645,261.53325 101.99475,262.0365 101.99475,297.53625 C101.07075,305.96775 96.68175,329.208 92.8455,340.43625 C89.00925,351.6645 89.133,368.7585 89.133,368.7585 L89.133,368.7585 C84.0845804,371.682473 79.7702414,375.720288 76.51875,380.56425 L73.99425,384.30975 C76.923,374.5995 81.9555,357.24975 85.97325,348.1005 C88.176,341.14575 92.57325,319.36575 91.641,303.27 C90.70875,287.17425 89.6445,274.71675 98.241,254.76825 C106.8375,234.81975 115.566,225.36525 141.0585,224.763 C146.025,224.63925 154.3905,225.225 164.307,226.446 Z" id="Path" fill="#FFFFFF" fill-rule="nonzero"></path>
                        <path d="M279.71625,238.623 C279.782317,238.203816 279.496059,237.810442 279.076875,237.744375 C278.657691,237.678308 278.264317,237.964566 278.19825,238.38375 C274.1475,258.74475 264.86625,300.498 254.27325,327.558 C239.14275,366.069 231.55275,373.2465 214.39275,388.84725 C214.126659,389.102806 214.080128,389.511563 214.281973,389.820386 C214.483819,390.129209 214.876883,390.250649 215.21775,390.1095 C229.30875,383.3775 249.282,367.5045 261.195,326.82375 C272.42325,288.46125 276.66375,268.67775 279.71625,238.623 Z" id="Path" fill="#000000" fill-rule="nonzero"></path>
                    </g>
                </g>
            </g>
        </g>
    </g>
</svg>