<?xml version="1.0" encoding="UTF-8"?>
<svg width="305px" height="408px" viewBox="0 0 305 408" version="1.1" xmlns="http://www.w3.org/2000/svg" xmlns:xlink="http://www.w3.org/1999/xlink">
    <title>Project_1.ai</title>
    <defs>
        <rect id="path-1" x="0" y="0" width="305" height="408" rx="8"></rect>
    </defs>
    <g id="Page-1" stroke="none" stroke-width="1" fill="none" fill-rule="evenodd">
        <g id="BuddhaDashboard-Copy" transform="translate(-67.000000, -226.000000)">
            <g id="Project_1.ai" transform="translate(67.000000, 226.000000)">
                <mask id="mask-2" fill="white">
                    <use xlink:href="#path-1"></use>
                </mask>
                <use id="Mask" fill="#6926FF" xlink:href="#path-1"></use>
                <g opacity="0.0496557327" mask="url(#mask-2)">
                    <g transform="translate(48.000000, -113.000000)">
                        <circle id="Oval" fill="#FEF4AD" fill-rule="nonzero" cx="226.42125" cy="101.74725" r="101.74725"></circle>
                        <path d="M191.631,179.14875 C190.58325,181.797 188.00925,186.714 183.32325,186.879146 C181.697538,186.893909 180.283319,185.768728 179.9325,184.18125 C179.1735,180.88125 179.64375,176.29425 179.85825,174.6525 C179.910696,174.228398 179.888358,173.798385 179.79225,173.382 L177.012,161.5845 L173.5635,147.246 C173.5635,147.1635 173.5635,147.08925 173.50575,147.00675 L169.521,134.36775 C169.396368,133.970393 169.340564,133.554658 169.356,133.1385 L169.76025,124.476 C169.817545,122.914665 170.889574,121.574629 172.40025,121.176 L172.40025,121.176 C173.023136,120.99875 173.683114,120.99875 174.306,121.176 L178.431,122.4135 C179.485514,122.720228 180.336652,123.501201 180.73275,124.5255 L185.15475,135.96 C185.321255,136.399685 185.399742,136.867802 185.38575,137.33775 C185.28675,140.7615 184.85775,155.562 184.85775,156.21375 C184.85775,156.8655 187.05225,168.2835 187.4235,169.01775 C187.6875,169.554 190.10475,173.80275 191.39175,176.055 C191.950809,176.992126 192.039331,178.136812 191.631,179.14875 Z" id="Path" fill="#FFFFFF" fill-rule="nonzero"></path>
                        <path d="M187.69575,179.421 C188.63625,180.4275 189.34575,187.56375 183.282,187.671 C177.21825,187.77825 174.42975,182.79525 174.636,176.418 C174.84225,170.04075 175.8075,159.6705 172.4415,152.18775 C169.0755,144.705 165.5115,138.468 165.165,128.997 C164.8185,119.526 168.32475,117.12525 171.204,112.497 C171.5505,111.606 169.8345,108.51225 169.422,104.12325 C169.0095,99.73425 161.87325,59.65575 200.0295,44.72325 C199.2045,38.94825 199.06425,32.9175 204.1545,26.57325 C209.24475,20.229 214.57425,17.1105 229.96875,15.741 C245.36325,14.3715 258.38175,23.562 259.75125,36.32475 C259.786198,39.0312748 259.648418,41.7372719 259.33875,44.42625 C259.33875,44.42625 285.417,56.80125 286.242,84.35625 C286.92675,97.812 285.14475,108.79275 283.635,113.18175 C286.6545,115.78875 292.55325,118.46175 288.70875,135.894 C286.6545,146.39625 280.70625,157.46775 280.6155,161.1225 C280.52475,164.77725 279.609,173.10975 280.6155,178.78575 C280.434,181.071 278.33025,186.4665 273.66075,187.03575 C268.99125,187.605 266.8875,182.64675 266.79675,179.0745 C266.79675,178.068 264.78375,177.51525 263.77725,180.17175 C262.663581,183.472301 262.10599,186.934941 262.12725,190.41825 C262.218,193.43775 262.3995,194.54325 264.7755,194.08125 C267.1515,193.61925 275.022,192.24975 281.15175,201.861 C282.8925,201.5805 287.83425,200.211 294.87975,208.17225 C296.34,208.4445 303.567,208.263 310.55475,213.94725 C312.84825,214.40925 339.74325,219.1695 348.15825,244.60425 C350.56725,252.9285 347.96025,266.51625 349.1895,269.66775 C350.41875,272.81925 356.67225,282.04275 357.03525,293.27925 C357.39825,304.51575 355.30275,313.038 355.38525,314.59725 C355.46775,316.1565 360.78075,319.54725 363.45375,337.87875 C363.86625,345.84 360.78075,351.54075 361.80375,354.7665 C362.82675,357.99225 367.26525,358.974 366.63,365.4915 C365.99475,372.009 363.88275,374.09625 364.617,377.8665 C365.35125,381.63675 368.27175,383.1795 367.72725,389.49075 C367.1745,392.32875 365.71425,393.2445 366.72075,395.71125 C367.72725,398.178 373.51875,400.158 379.29375,423.0765 C383.13825,438.31425 390.225,463.155 393.51675,467.7255 C399.19275,478.1535 420.057,481.998 421.33575,516.77175 C420.9645,528.1155 412.5495,558.3105 373.5765,565.80975 C367.34775,567.0885 352.803,568.82925 333.9765,564.44025 C332.46675,565.26525 299.805,568.7385 274.91475,563.0625 C256.476,559.58925 253.00275,556.98225 252.1365,557.667 C251.27025,558.35175 254.24025,564.15975 273.405,568.689 C272.35725,569.283 267.828,568.9695 267.828,570.339 C267.828,571.7085 272.30775,573.1275 284.61675,576.741 C289.971,577.797 293.9475,578.2095 293.997,578.71275 C294.0465,579.216 286.077,582.01275 279.40275,580.998 C272.7285,579.98325 265.122,576.23775 258.77775,576.609 C249.95025,576.99675 241.758,584.4795 235.1745,584.661 C228.591,584.8425 225.4725,585.93975 218.6745,583.473 C207.1245,580.08225 201.3495,572.03025 188.57025,571.66725 C179.421,571.395 169.5375,579.1665 162.3105,580.90725 C155.0835,582.648 149.8695,581.6415 143.8305,580.26375 C137.7915,578.886 128.5515,576.05625 122.42175,575.784 C127.2645,574.22475 153.34275,564.3495 163.77075,551.4465 C163.77075,551.4465 145.10925,564.3495 108.87525,561.78375 C91.8555,560.868 72.45975,562.1055 59.2845,561.14025 C46.10925,560.175 16.0545,559.77075 4.24875,527.934 C2.59875,519.288 -2.475,512.424 3.83625,488.54025 C11.93775,470.70375 25.113,470.29125 33.20625,466.03425 C41.2995,461.77725 52.833,453.41175 62.172,453.2715 C74.65425,452.859 79.1835,455.19375 81.38625,453.95625 C83.589,452.71875 85.635,446.67975 98.538,443.23125 C102.927,443.09925 108.966,444.88125 113.49525,442.34025 C118.0245,439.79925 121.41525,432.67125 125.532,431.66475 C129.64875,430.65825 137.907,431.56575 138.42675,430.287 C138.9465,429.00825 135.86925,423.126 137.8575,415.03275 C139.84575,406.9395 141.636,403.77975 140.3985,403.095 C139.161,402.41025 110.52525,436.788 85.272,434.58525 C77.7645,433.67775 65.87625,418.29975 64.22625,398.7225 C64.58925,384.6315 66.60225,370.5405 73.0125,357.918 C78.4353881,343.637978 82.1812385,328.776393 84.17475,313.632 C86.922,292.22325 89.298,262.944 99.02475,239.52225 C109.08975,217.01625 140.382,215.00325 148.071,216.8265 C152.6415,214.8135 161.0895,212.52825 165.891,211.431 C170.6925,210.33375 184.28025,206.283 187.506,201.531 C190.73175,196.779 193.479,188.1495 192.2415,182.1105 C191.004,176.0715 182.15175,158.367 181.401,150.20775 C180.65025,142.0485 180.50175,136.06725 177.48225,130.3005 C175.7745,127.48725 175.0485,126.1755 173.712,127.0005 C172.3755,127.8255 171.996,136.0755 173.646,141.24 C175.15575,147.35325 179.89125,157.36875 180.246,163.746 C181.005,170.8905 179.124,181.27725 182.92725,182.00325 C184.72575,182.3085 186.39225,177.87 187.69575,179.421 Z" id="Path" fill="#000000" fill-rule="nonzero"></path>
                        <path d="M140.96775,431.4915 C141.14925,425.271 148.2855,408.06975 149.9355,402.9465 C153.9615,398.18625 186.5325,370.3755 205.2105,349.8825 C234.0855,314.74575 243.9855,290.04525 249.315,273.94125 C237.0555,301.9335 191.565,353.22375 184.965,359.535 C178.365,365.84625 152.30325,388.4925 151.7505,388.4925 C154.2255,384.92025 181.62375,339.44625 181.62375,339.44625 C181.62375,339.44625 196.32525,328.9275 203.4615,322.905 C220.20075,307.23 240.92475,275.286 247.929,264.5775 C254.93325,253.869 264.84975,233.05425 268.9665,222.8985 C274.2795,209.54175 269.33775,197.05125 269.33775,197.05125 C269.33775,197.05125 277.8435,200.94525 275.286,212.652 C272.72025,222.552 251.3115,260.7825 253.143,269.577 C261.195,253.84425 270.70725,234.102 275.09625,229.152 C278.2065,224.4 281.69625,210.309 281.69625,204.4515 C284.8065,207.7515 305.85225,233.178 303.65775,293.5515 C301.455,334.54575 300.729,377.7015 286.4565,395.66175 C290.11125,380.292 298.16325,351.01275 294.5085,330.1485 C291.94275,346.2525 284.25375,385.044 274.3785,398.21925 C269.25525,399.32475 254.793,401.28825 254.52075,398.9535 C254.52075,398.9535 296.373,349.31325 292.83375,256.6575 C292.85881,256.201865 292.50976,255.812185 292.054125,255.787125 C291.59849,255.762065 291.20881,256.111115 291.18375,256.56675 C289.8225,266.772 286.968,285.2025 281.28375,311.84175 C272.1345,355.0305 265.914,374.42625 247.98675,394.19325 C243.96075,398.94525 235.4055,399.2175 229.63875,396.891 C221.01622,393.503298 211.457838,393.356742 202.7355,396.4785 C192.0105,400.455 179.4045,404.85225 179.4045,404.85225 L171.85575,431.33475 C171.85575,431.33475 147.15525,432.15975 145.233,432.15975 L143.34375,432.15975 L140.96775,431.4915 Z" id="Path" fill="#F4CC12" fill-rule="nonzero"></path>
                        <path d="M149.94375,570.19875 C149.94375,570.19875 170.91525,559.58925 173.5635,546.20775 C173.833054,544.687944 174.613007,543.305564 175.7745,542.289 C181.70625,537.2235 186.80475,533.61 187.54725,525.18675 C177.11925,533.6925 142.8075,555.38175 98.8845,551.53725 C54.9615,547.69275 25.047,530.08725 22.308,488.40825 C17.08575,491.97225 4.983,517.49775 42.339,544.9455 C33.83325,546.86775 14.34675,542.619 9.8175,510.774 C8.1675,496.914 12.2925,480.1665 29.98875,474.1275 C36.168,472.4775 50.61375,473.9955 58.53375,477.015 C57.16425,472.89 49.75575,465.62175 49.75575,465.62175 C49.75575,465.62175 59.73,458.19675 84.7935,462.42075 C98.703,464.25225 112.0185,463.155 118.6185,459.12075 C108.372,460.3995 94.4625,456.3735 94.4625,456.3735 C94.4625,456.3735 99.76725,447.58725 115.68975,450.516 C127.0335,452.529 146.8005,476.091 170.76675,463.32825 C170.76675,463.32825 136.94175,465.88575 123.92325,445.17825 C129.228,440.055 136.18275,432.91875 147.345,439.50225 C158.14425,447.75225 205.16925,466.95 231.15675,433.191 C231.15675,433.191 203.33775,453.04875 178.45575,448.107 C168.02775,447.37275 159.423,439.32075 159.423,439.32075 C159.423,439.32075 180.65025,445.82175 205.9035,439.50225 C217.4535,435.37725 233.079,427.70475 240.4875,427.70475 C247.896,427.70475 263.274,430.17975 257.50725,436.48275 C251.7405,442.78575 243.77925,459.26925 196.02,475.19175 C207.00075,475.19175 220.176,476.01675 249.546,453.5025 C258.33225,445.82175 266.97825,432.234 272.745,433.6035 C271.6395,437.7285 260.11425,460.779 232.11375,476.8335 C240.075,477.246 252.5655,472.263 264.825,459.26925 C276.7215,445.54125 283.85775,436.029 283.85775,436.029 L289.63275,438.405 C285.356882,438.961813 281.376712,440.889663 278.289,443.8995 C275.88,446.325 275.484,450.8955 273.2565,454.88025 C281.6715,447.37275 291.7365,441.15225 299.23575,441.15225 C306.5535,443.70975 310.2165,445.17825 310.2165,445.17825 C310.2165,445.17825 286.79475,445.9125 265.5675,465.85275 C258.06825,469.87875 248.72925,486.16425 248.72925,486.16425 C248.72925,486.16425 236.46975,479.028 223.66575,492.76425 C220.54725,488.004 211.398,475.926 192.7365,488.004 C193.47075,481.7835 194.3865,477.576 191.27625,474.0945 C188.166,470.613 183.58725,466.59525 172.425,470.25825 C161.997,473.187 154.275,475.3815 143.55,470.62125 C132.825,465.861 122.5125,460.37475 115.73925,463.3035 C108.966,466.23225 104.94,471.3555 99.99825,470.62125 C95.0565,469.887 86.2785,465.498 81.51825,469.161 C76.758,472.824 77.49225,477.02325 75.66075,477.02325 C73.82925,477.02325 67.06425,476.29725 61.38825,481.239 C57.36225,480.1335 34.67475,473.187 24.60975,488.1855 C35.03775,484.8855 50.226,481.965 62.4855,490.93275 C69.8115,496.60875 79.96725,524.32875 108.7845,527.901 C124.4595,528.4455 144.46575,524.32875 152.295,506.21175 C175.626,516.78 189.618,522.95925 189.618,522.95925 C189.618,522.95925 195.657,525.56625 191.12775,533.68425 C186.5985,541.80225 175.9395,558.84675 170.81625,562.69125 C185.823,554.27625 191.3175,543.6585 198.63525,531.95175 C200.343,542.67675 202.2075,559.4985 215.51475,569.43975 C215.8262,569.714551 216.293381,569.714963 216.605315,569.440711 C216.917249,569.16646 216.97666,568.703073 216.744,568.359 C210.078,556.93275 203.148,543.609 206.50575,531.234 C209.979,534.534 216.57075,535.26 216.57075,535.26 C216.57075,535.26 226.99875,548.25375 237.78975,550.99275 C239.25825,555.2085 243.10275,562.54275 253.89375,567.49275 C244.7445,569.86875 235.74375,575.355 227.9145,575.54475 C220.08525,575.7345 218.2125,575.54475 211.4145,570.59475 C204.6165,565.64475 194.5845,557.04825 183.96675,560.69475 C173.349,564.34125 166.0395,571.12275 159.26625,570.75975 C152.493,570.39675 149.94375,570.19875 149.94375,570.19875 Z" id="Path" fill="#F3CD11" fill-rule="nonzero"></path>
                        <path d="M201.72075,489.324 C201.72075,489.324 208.32075,486.93975 214.7145,493.34175 C221.10825,499.74375 224.6145,513.6615 237.5835,516.0375 C235.026,509.817 226.60275,501.03075 224.961,496.089 C230.26575,494.076 239.811,490.2315 244.35675,492.789 C248.9025,495.3465 252.04575,498.6465 263.01825,506.6985 C273.8175,514.19775 298.42725,532.587 337.953,528.7425 C348.909,526.06125 361.12725,522.654 367.521,513.3315 C368.085739,512.539377 368.006092,511.45733 367.331455,510.756435 C366.656818,510.05554 365.5786,509.934654 364.7655,510.46875 C355.509,516.615 338.679,524.997 317.922,521.60625 C291.01875,517.21725 271.26,508.7115 260.27925,491.964 C266.5905,491.4195 280.038,488.4 289.64925,491.139 C299.2605,493.878 314.9025,496.914 323.961,495.53625 C316.536,491.964 308.8635,488.67225 308.8635,488.67225 C308.8635,488.67225 317.6415,483.72225 335.214,484.54725 C352.7865,485.37225 380.226,489.49725 392.57625,482.625 C369.798,482.625 363.759,481.52775 363.759,481.52775 C365.152826,478.31901 364.300807,474.576809 361.65525,472.28775 C357.0765,468.26175 345.36975,467.8905 338.9595,471.1905 C340.428,467.1645 352.1595,456.918 372.4545,466.79325 C368.61,468.98775 364.584,468.98775 364.03125,471.00075 C371.349,472.10625 399.7125,470.547 408.2265,496.34475 C412.3515,510.07275 417.55725,545.2095 370.07025,554.54025 C353.331,557.55975 319.84425,554.8125 294.3105,545.46525 C269.05725,536.39025 249.02625,523.2315 241.6095,519.6675 C247.929,528.7425 267.96,544.09575 298.98,556.446 C287.17425,556.17375 259.99875,555.06825 241.89,544.071 C223.78125,533.07375 214.98675,510.0315 212.79225,505.08975 C210.59775,500.148 207.3885,491.60925 201.72075,489.324 Z" id="Path" fill="#F4CC12" fill-rule="nonzero"></path>
                        <path d="M182.0445,316.965 C182.53125,318.82125 196.32525,319.54725 198.33825,319.00275 C204.74025,315.15825 226.512,281.6715 242.7975,254.22375 C262.746,220.18425 261.64875,210.8535 262.5975,203.1645 C254.5455,200.7885 254.3475,194.01525 253.99275,191.27625 C230.94225,210.11925 208.98075,194.931 201.11025,189.62625 C198.73425,213.048 175.131,215.2425 165.429,217.2555 C200.904,223.8555 219.054,235.74375 229.11075,241.593 C203.30475,230.61225 156.27975,224.39175 141.0915,224.763 C115.632,225.3735 106.8705,234.828 98.274,254.76825 C89.6775,274.7085 90.7665,287.15775 91.674,303.26175 C92.5815,319.36575 88.20075,341.14575 86.00625,348.09225 C81.98025,357.24975 83.16825,359.64225 80.23125,369.3195 L89.1495,368.775 C92.1070673,367.927498 95.1518433,367.420958 98.2245,367.26525 C103.722521,367.031737 109.066203,365.377469 113.7345,362.46375 C118.80825,359.16375 125.67225,351.34275 131.0595,348.051 C131.0595,343.926 129.822,312.36975 132.297,304.953 C128.865,296.307 124.46775,278.19 119.25375,274.89825 C123.37875,274.48575 131.62875,274.2135 133.52625,293.2875 C134.574,290.3175 149.91075,285.0375 157.96275,289.1625 C172.1115,296.43075 182.0445,316.965 182.0445,316.965 Z" id="Path" fill="#FACDA3" fill-rule="nonzero"></path>
                        <path d="M162.7725,275.12925 C162.7725,275.583 165.33825,275.77275 167.6235,280.34325 C171.006,273.66075 173.316,269.86575 174.57825,267.72075 C176.088,265.155 179.289,260.08125 181.83825,261.86325 C184.266662,263.34733 185.441619,266.24288 184.734,268.9995 C183.99975,274.857 176.8965,285.9285 176.70675,290.862 C176.70675,290.862 180.83175,291.8685 178.53825,297.363 C180.73275,298.551 183.942,299.64825 183.2985,301.01775 C182.655,302.38725 180.18825,307.51875 180.73275,311.9985 C181.27725,316.47825 181.37625,319.3245 181.37625,319.3245 C180.384586,322.427129 179.905301,325.67066 179.95725,328.9275 C180.2295,333.45675 180.36975,346.35975 167.58225,358.98225 C163.73775,364.47675 137.5275,415.57725 103.488,428.19975 C85.404,427.19325 78.738,425.601 75.24825,418.13475 C67.2705,401.1315 70.57875,386.0175 70.57875,386.0175 C70.57875,386.0175 79.09275,367.62825 100.5015,367.356 C110.5665,364.79025 117.52125,363.78375 131.0265,347.13525 C129.74775,342.74625 131.274,342.56475 132.18975,331.03125 C133.1055,319.49775 132.627,295.944 133.83975,292.5615 C135.0525,289.179 136.82625,284.97975 137.214,283.72575 C139.49925,276.30075 140.2335,270.52575 144.078,270.831 C147.9225,271.13625 147.05625,282.86775 147.05625,282.86775 L149.41575,279.0645 C150.922793,275.656452 152.60247,272.327388 154.44825,269.09025 C155.859,266.84625 157.28625,263.7855 158.88675,261.9045 C159.996961,260.574117 161.899201,260.226993 163.40775,261.0795 C165.32175,262.218 166.914,264.6435 165.528,268.719 C164.812456,270.937396 163.889895,273.083593 162.7725,275.12925 Z" id="Path" fill="#000000" fill-rule="nonzero"></path>
                        <path d="M169.917,303.633 C169.917,303.633 161.06475,303.42675 157.69875,304.524 C156.87375,301.917 153.9285,293.47725 158.3175,281.259 C159.555,278.2395 161.82375,275.22 164.0925,277.959 C166.36125,280.698 168.894,286.81125 170.27175,288.387 C171.6495,289.96275 174.39675,293.21325 178.09275,293.39475 C179.74275,293.85675 177.68025,296.11725 175.20525,296.4885 C172.73025,296.85975 168.98475,294.92925 167.1615,293.74125 C165.33825,292.55325 159.38175,287.05875 159.38175,287.05875 C159.38175,287.05875 161.1225,290.72175 163.317,292.182 C163.68,294.56625 164.505,301.51275 164.505,301.51275 C164.951178,299.535194 165.501952,297.582701 166.155,295.6635 C166.881,296.3895 168.069,298.1385 172.46625,299.6895 C171.508527,300.930972 170.655832,302.250028 169.917,303.633 Z" id="Path" fill="#FECFA1" fill-rule="nonzero"></path>
                        <path d="M172.64775,286.92675 C173.094081,287.298739 173.690982,287.435726 174.254848,287.295574 C174.818713,287.155423 175.282018,286.754916 175.50225,286.21725 C176.418,283.97325 177.91125,280.6815 179.4375,277.14225 C181.038,273.438 182.26725,271.54875 182.82825,268.7685 C183.08871,267.610015 183.008485,266.400918 182.59725,265.287 C182.395938,264.720831 181.92746,264.290996 181.346095,264.139049 C180.76473,263.987101 180.145845,264.132738 179.69325,264.528 C178.761,265.353 177.8535,266.92875 176.14575,270.138 C173.55525,275.01375 172.02075,277.98375 169.8015,281.89425 C169.452113,282.50995 169.49071,283.272239 169.9005,283.8495 C170.649321,285.012887 171.576389,286.051314 172.64775,286.92675 Z" id="Path" fill="#FECFA1" fill-rule="nonzero"></path>
                        <path d="M152.691,355.905 C152.691,355.905 142.9065,356.27625 139.2435,349.77525 C135.5805,343.27425 136.67775,332.0295 136.67775,326.7165 C136.67775,321.4035 137.13975,299.91225 138.7815,289.84725 C139.194,287.3145 141.8175,275.9625 144.5565,277.629 C146.2065,278.6355 144.96075,289.113 144.13575,292.68525 C143.3685,296.043 142.07325,302.89875 143.517,308.0055 C143.537707,308.103417 143.537707,308.204583 143.517,308.3025 C143.2035,310.14225 140.514,311.4375 140.514,311.4375 C140.514,311.4375 160.677,305.90175 167.92875,307.1145 C168.260588,307.173371 168.488697,307.481136 168.4485,307.81575 C168.07725,310.9425 167.4255,316.14 168.7785,319.89375 C168.849338,320.070554 168.843335,320.268873 168.761933,320.441069 C168.680532,320.613264 168.531088,320.743775 168.3495,320.80125 C164.01,322.13775 156.97275,325.644 155.3805,332.574 C155.309463,332.871263 155.449154,333.178836 155.719741,333.320943 C155.990327,333.463049 156.32284,333.403468 156.52725,333.17625 C159.53025,329.703 164.33175,325.281 173.58,322.76475 C173.914757,322.679455 174.119992,322.342284 174.042,322.00575 C172.623,316.1565 171.204,307.60125 175.00725,302.379 C176.19525,300.6465 179.7675,301.0095 178.85175,303.8475 C177.49131,308.121222 177.323014,312.685189 178.365,317.0475 C178.385524,317.142656 178.385524,317.241094 178.365,317.33625 C177.705,319.61325 176.3025,322.74825 176.57475,330.42075 C176.847,336.59175 174.6525,347.84475 169.14975,353.47125 C167.23575,355.377 164.4555,357.9675 158.037,356.1195 C157.938697,356.102884 157.838303,356.102884 157.74,356.1195 C153.7635,356.3175 152.691,355.905 152.691,355.905 Z" id="Path" fill="#FECFA1" fill-rule="nonzero"></path>
                        <path d="M148.8795,307.065 C148.442431,307.18294 147.975859,307.11027 147.595363,306.864991 C147.214867,306.619713 146.956041,306.224771 146.883,305.778 C146.36325,302.70075 145.497,296.05125 146.77575,291.093 C148.317165,284.800466 150.750815,278.760791 154.00275,273.1575 C157.30275,267.531 160.60275,260.03175 163.3335,263.736 C165.12375,267.036 161.733,272.88525 160.1325,274.8075 C156.321502,279.444928 153.985537,285.116753 153.42525,291.093 C152.84775,298.617 152.86425,300.24225 153.549,304.11975 C153.676024,304.901799 153.229254,305.663733 152.48475,305.93475 C150.9915,306.46275 149.7705,306.82575 148.8795,307.065 Z" id="Path" fill="#FECFA1" fill-rule="nonzero"></path>
                        <path d="M232.44375,192.1425 C244.14225,191.58975 266.66475,174.57825 272.52225,149.13525 C273.6195,138.88875 272.34075,122.24025 271.788,112.35675 C271.2435,105.2205 269.247,102.96 267.663,101.03775 C266.079,99.1155 264.231,97.3995 263.95875,90.39525 C263.7525,87.09525 260.93925,79.14225 248.1765,77.19525 C240.075,76.37025 236.2305,79.80225 230.472,79.80225 C224.7135,79.80225 213.147,75.966 208.5105,76.50225 C203.874,77.0385 195.3105,78.837 191.07825,90.77475 C190.3935,93.522 191.77125,98.2575 190.66575,100.72425 C190.05525,103.884 185.79825,109.032 187.10175,113.92425 C187.10175,113.92425 189.64275,108.7845 192.1095,107.68725 C194.57625,106.59 199.7985,105.006 204.1215,105.3525 C208.4445,105.699 219.44175,109.329 217.89075,118.11525 C215.6055,116.556 196.39125,106.03725 186.417,117.843 C186.04575,120.12825 187.4235,125.16075 187.4235,125.16075 C187.4235,125.16075 211.9425,129.54975 217.8,124.608 C216.3315,127.35525 212.85,133.39425 203.33775,132.1155 C197.702812,131.372867 192.230203,129.700139 187.143,127.1655 C187.143,127.1655 186.549,143.77275 189.4365,156.80775 C192.324,169.84275 208.2135,193.28925 232.44375,192.1425 Z" id="Path" fill="#FACDA3" fill-rule="nonzero"></path>
                        <circle id="Oval" fill="#000000" fill-rule="nonzero" cx="233.607" cy="156.47775" r="2.541"></circle>
                        <ellipse id="Oval" fill="#000000" fill-rule="nonzero" transform="translate(220.156071, 156.479544) rotate(-15.250000) translate(-220.156071, -156.479544) " cx="220.156071" cy="156.479544" rx="2.13675" ry="2.541"></ellipse>
                        <path d="M235.74375,166.24575 C234.14325,165.099 233.3595,164.6865 232.08075,164.64525 C230.802,164.604 229.9275,165.924 228.195,165.88275 L228.195,165.88275 C226.4625,165.924 225.588,164.604 224.30925,164.64525 C223.0305,164.6865 222.255,165.10725 220.6545,166.24575 C219.054,167.38425 213.69975,168.036 213.69975,168.036 C219.5985,170.27175 221.12475,168.53925 223.35225,169.72725 C224.91975,170.55225 226.28925,171.22875 227.172,171.633 C227.82269,171.938433 228.57556,171.938433 229.22625,171.633 C230.10075,171.2205 231.47025,170.5605 233.03775,169.719 C235.28175,168.531 236.7915,170.27175 242.69026,168.069 C242.6985,168.02775 237.39375,167.3925 235.74375,166.24575 Z" id="Path" fill="#000000" fill-rule="nonzero"></path>
                        <path d="M219.8625,172.87875 C222.227633,174.3817 224.956443,175.214315 227.75775,175.28775 C232.14675,175.28775 236.00775,173.70375 236.544,172.6725 C235.3725,175.48575 234.003,179.74275 228.17025,179.74275 C222.3375,179.74275 219.8625,172.87875 219.8625,172.87875 Z" id="Path" fill="#000000" fill-rule="nonzero"></path>
                        <path d="M234.91875,118.305 C234.91875,118.305 235.059,106.43325 249.60375,105.105 C255.783,104.6265 262.3005,105.72375 264.70125,115.533 C261.888,113.817 258.522,110.52525 250.42875,111.5565 C242.3355,112.58775 234.91875,118.305 234.91875,118.305 Z" id="Path" fill="#000000" fill-rule="nonzero"></path>
                        <path d="M235.29825,126.0105 C235.29825,126.0105 245.72625,127.314 250.87425,127.38825 C256.02225,127.4625 264.8085,127.6605 266.03775,126.423 C264.32175,128.5515 260.34525,134.046 251.28675,132.60225 C245.545317,131.580053 240.091851,129.331694 235.29825,126.0105 L235.29825,126.0105 Z" id="Path" fill="#000000" fill-rule="nonzero"></path>
                        <path d="M186.1365,442.29075 C186.1365,442.29075 177.21,442.70325 170.214,440.3685 C163.218,438.03375 160.94925,438.24 158.07,436.73025 C155.19075,435.2205 148.2525,431.58225 144.8205,431.99475 C144.8205,429.38775 143.1705,423.489 154.82775,421.26975 C156.47775,419.892 160.81725,414.45525 169.4715,418.43175 C170.841,415.5525 171.55875,411.312 172.10325,410.39625 C172.414611,409.845466 172.647846,409.254049 172.79625,408.639 C173.2335,406.989 174.33075,406.8735 176.0055,406.6755 L176.11275,406.5105 C176.720274,405.522313 177.761719,404.88213 178.91775,404.78625 C179.19,404.78625 179.487,404.78625 179.82525,404.78625 C182.5725,404.95125 190.64925,403.5735 201.0195,398.508 C204.444047,396.844452 208.185904,395.935715 211.992,395.84325 C218.23725,395.6865 227.44425,396.066 234.85275,398.6565 C239.88742,399.669741 244.974516,400.402371 250.0905,400.851 L246.114,427.47375 C246.114,427.47375 240.339,425.69175 237.6,426.3765 C234.861,427.06125 230.3235,431.5905 213.7245,435.57525 C195.46725,438.72675 195.46725,441.05325 186.1365,442.29075 Z" id="Path" fill="#000000" fill-rule="nonzero"></path>
                        <path d="M315.14175,387.39525 C315.14175,387.39525 312.40275,397.551 282.48,404.415 C274.791,404.9595 249.53775,407.715 242.12925,405.51225 C234.890288,403.28312 227.474049,401.676774 219.9615,400.71075 C215.226,400.1745 209.65725,400.092 205.887,400.818 C203.9895,401.79975 201.762,403.02075 199.74075,403.86225 C196.824264,405.136898 193.703456,405.880081 190.5255,406.05675 C186.533285,406.240643 182.532754,406.011173 178.58775,405.372 C178.58775,405.372 176.93775,406.6095 178.17525,407.979 C179.41275,409.3485 184.899,413.754 194.9145,410.454 C201.91875,407.979 208.37025,403.1775 211.662,406.88175 C214.269,410.454 215.6385,416.35275 207.537,424.314 C200.937,430.62525 193.3965,434.214 183.93375,432.27525 C178.5795,431.31 173.20875,426.921 173.63775,421.55025 C174.06675,416.1795 178.4475,414.62025 176.52525,408.8535 C175.428,407.75625 173.88525,408.35025 174.42975,410.64375 C174.61125,412.37625 174.59475,413.1765 172.3095,418.58025 C171.21225,421.6905 171.82275,427.7295 175.527,431.56575 C178.827,434.22225 182.46525,437.88525 187.67925,437.42325 C192.89325,436.96125 206.98425,431.84625 215.358,430.19625 C223.73175,428.54625 232.79025,421.94625 235.5375,421.41 C238.28475,420.87375 247.5165,420.13125 265.6335,426.17025 C275.88825,428.01825 335.56875,439.5435 358.42125,424.38 L359.79075,423.10125 C359.79075,423.10125 353.71875,399.3825 341.34375,389.499 C334.9995,384.648 320.4465,382.635 315.14175,387.39525 Z" id="Path" fill="#FED09E" fill-rule="nonzero"></path>
                        <path d="M180.345,440.055 C180.535143,440.276557 180.541803,440.601731 180.36089,440.830887 C180.179977,441.060043 179.862137,441.129032 179.6025,440.9955 C176.130226,439.009133 172.508525,437.296203 168.77025,435.87225 C162.921,433.84275 159.69525,433.61175 158.27625,433.125 C156.85725,432.63825 149.63025,428.736 145.233,431.6895 C144.942759,430.578206 145.4552,429.413259 146.4705,428.87625 C147.3615,428.2575 151.6845,427.3665 154.84425,429.00825 C157.10475,429.9735 161.01525,432.168 161.01525,432.168 C161.01525,432.168 166.92225,430.1055 168.63825,430.0395 C166.138999,430.121536 163.637156,430.008443 161.1555,429.70125 C160.53675,429.561 159.15075,425.931 153.11175,425.832 C148.29375,425.7165 147.46875,426.855 147.46875,426.855 C147.46875,426.855 148.42575,423.423 153.24375,423.76125 C158.06175,424.0995 159.291,424.10775 162.855,427.53975 L168.069,425.139 L163.47375,424.93275 C162.164489,422.916493 159.974866,421.64253 157.575,421.50075 C158.8455,420.67575 161.304,419.65275 169.191,419.96625 C169.191,419.96625 169.3725,428.01825 169.653,429.9405 C173.508821,432.989497 177.086819,436.37424 180.345,440.055 Z" id="Path" fill="#FED09E" fill-rule="nonzero"></path>
                        <path d="M176.5995,421.56675 C176.5995,421.56675 175.12275,426.10425 178.91775,427.65525 C182.15175,428.79375 196.779,431.937 204.72375,422.1855 C202.24875,422.499 199.59225,427.3995 189.18075,426.41775 C182.5725,425.95575 178.63725,425.7495 176.5995,421.56675 Z" id="Path" fill="#FED09E" fill-rule="nonzero"></path>
                        <path d="M251.46,488.6805 L256.41,495.132 C256.41,495.132 270.963,484.97625 287.0175,485.80125 C294.56625,486.486 297.4455,487.99575 298.95525,487.99575 C300.465,487.99575 316.52775,480.0345 325.71825,480.57075 C334.90875,481.107 364.8315,483.318 364.8315,483.318 C364.8315,483.318 358.93275,475.629 352.06875,475.76925 C345.20475,475.9095 341.5005,478.929 341.5005,478.929 C341.5005,478.929 338.349,470.14275 327.78075,471.79275 C317.2125,473.44275 304.99425,481.80825 300.19275,480.711 C295.39125,479.61375 286.33275,477.6915 281.391,475.0845 C276.44925,472.4775 267.663,472.065 262.72125,477.6915 C259.204085,481.589364 255.442755,485.259761 251.46,488.6805 L251.46,488.6805 Z" id="Path" fill="#FED09E" fill-rule="nonzero"></path>
                        <path d="M79.38975,476.87475 C79.38975,476.87475 89.166,481.19775 93.08475,485.12475 C97.29225,484.58025 108.0915,482.38575 113.21475,483.11175 C117.96675,483.7965 137.247,489.8355 146.2725,495.9735 C148.238821,497.273845 150.292438,498.437102 152.41875,499.455 C164.48025,505.4445 190.6245,518.43 211.1505,522.456 C208.04025,516.054 208.04025,508.1835 205.84575,502.326 C203.65125,496.4685 197.59575,490.61925 193.22325,489.7035 C190.476,486.222 188.1,471.768 170.89875,476.89125 C158.961,479.8035 150.76875,481.305 147.46875,480.35625 C144.16875,479.4075 123.9315,468.70725 116.2425,471.042 C107.09325,473.97075 108.4875,478.70625 103.00125,478.70625 C97.515,478.70625 90.189,471.47925 79.38975,476.87475 Z" id="Path" fill="#FED09E" fill-rule="nonzero"></path>
                        <path d="M149.20125,505.05675 C149.20125,505.05675 136.57875,524.634 105.47625,521.55675 C92.664,519.36225 79.85175,506.3685 72.98775,495.98175 C68.6895,487.56675 66.86625,484.08525 64.85325,484.08525 C78.3915,484.26675 93.027,484.8195 106.02075,487.1955 C119.0145,489.5715 127.98225,492.31875 129.63225,496.5345 C124.68225,497.442 107.85225,498.729 99.80025,490.12425 C102.9105,495.80025 109.86525,510.807 135.85275,499.2735 L149.20125,505.05675 Z" id="Path" fill="#F3CD11" fill-rule="nonzero"></path>
                        <path d="M156.3375,352.81125 C156.3375,352.81125 155.05875,358.479 149.94375,359.205 C145.04663,359.985215 140.033385,358.943236 135.85275,356.27625 C132.924,359.0235 121.58025,369.633 112.6125,371.8275 C106.9365,373.659 87.8625,372.56175 79.85175,376.40625 L79.728,376.4805 C76.5529858,378.300572 74.3857829,381.473867 73.84575,385.0935 C73.08675,390.0435 72.34425,397.83975 73.91175,403.3095 C76.38675,411.9555 82.27725,427.04475 99.297,421.014 C111.51525,415.5195 129.0795,405.636 138.27825,392.87325 C147.477,380.1105 159.72825,363.4125 161.832,360.855 C160.3635,357.20025 158.62275,352.94325 156.3375,352.81125 Z" id="Path" fill="#FACDA3" fill-rule="nonzero"></path>
                        <path d="M182.325,325.083 C182.325,325.083 182.7375,332.772 181.64025,335.9235 C185.76525,332.904 190.00575,329.61225 191.24325,326.0235 L182.325,325.083 Z" id="Path" fill="#FFFFFF" fill-rule="nonzero"></path>
                        <path d="M178.81875,413.01975 C178.923682,414.940964 178.700488,416.866012 178.15875,418.71225 C178.019823,419.088141 178.143895,419.510655 178.464,419.75175 C180.939,421.641 184.503,423.05175 195.624,422.44125 L195.723,422.44125 C199.344853,421.997626 202.851288,420.878254 206.06025,419.14125 C206.163065,419.079553 206.252762,418.998265 206.32425,418.902 C206.90175,418.077 209.517,414.04275 206.93475,410.4375 C206.728457,410.154755 206.381175,410.011382 206.0355,410.06625 C204.237,410.37975 202.3395,413.20125 198.23925,414.19125 C194.139,415.18125 185.86425,417.7635 180.38625,412.368 C180.127479,412.093379 179.725776,412.007536 179.377362,412.152403 C179.028948,412.29727 178.806528,412.642617 178.81875,413.01975 Z" id="Path" fill="#F4CC12" fill-rule="nonzero"></path>
                        <path d="M257.19375,73.656 C257.19375,73.656 265.6995,93.456 266.5245,109.6095 C267.3495,125.763 270.6495,143.09625 268.1745,151.0575 C265.6995,159.01875 258.01875,177.13575 254.1495,182.34975 C250.28025,187.56375 257.4495,188.94975 257.4495,188.94975 L276.71325,160.38 L283.03275,134.0295 L269.10675,83.2425 L257.19375,73.656 Z" id="Path" fill="none"></path>
                        <g id="Group" opacity="0.8" stroke-width="1" fill="none" fill-rule="evenodd" transform="translate(72.600000, 83.325000)">
                            <path d="M272.4645,318.16125 C271.722,325.28925 259.65225,326.21325 237.336,328.77075 C209.3355,332.607 178.959,327.492 167.607,325.85025 C151.107,318.714 148.02975,319.25025 140.70375,319.06875 C133.37775,318.88725 127.1655,323.6475 115.83,324.38175 C110.34375,324.7365 107.07675,324.0105 105.171,323.1855 C105.328753,322.731219 105.615433,322.332734 105.996,322.03875 C109.940464,322.682984 113.941236,322.915234 117.93375,322.73175 C124.79775,322.4595 130.5645,318.88725 133.16325,317.51775 C145.1175,315.32325 162.13725,319.99275 169.54575,322.179 C176.95425,324.36525 202.2075,321.64275 209.8965,321.09 C239.80275,314.21775 242.55,304.07025 242.55,304.07025 C245.3385,301.59525 250.67625,300.9435 256.02225,301.59525 C268.74375,305.58 273.01725,312.6915 272.4645,318.16125 Z" id="Path" fill="#FFFFFF" fill-rule="nonzero"></path>
                            <path d="M179.34675,174.603 C177.18525,180.50175 175.22175,185.78175 173.57175,188.9745 C168.8115,198.48675 131.11725,246.7905 113.916,264.73425 C105.837021,271.651797 99.7317541,280.583418 96.21975,290.62275 C87.78,297.99825 79.398,305.15925 79.09275,305.15925 C81.56775,301.6035 108.97425,256.12125 108.97425,256.12125 C108.97425,256.12125 123.717,245.6025 130.8615,239.58 C147.60075,223.905 168.333,191.961 175.329,181.2525 C176.59125,179.355 177.94425,177.0615 179.34675,174.603 Z" id="Path" fill="#FFFFFF" fill-rule="nonzero"></path>
                            <path d="M292.22325,400.0095 L288.651,399.7455 C286.875795,397.764875 284.676027,396.210936 282.216,395.19975 C276.8535,393.13725 269.58525,397.67475 269.58525,397.67475 C269.58525,397.67475 266.56575,392.60925 258.324,392.04825 C250.08225,391.48725 229.78725,400.9665 225.38175,401.38725 C220.97625,401.808 208.7745,394.515 201.6465,394.2345 C195.657,394.02 184.734,405.09975 181.39275,408.6555 L178.86825,405.3555 C182.84888,401.941029 186.60494,398.273153 190.113,394.37475 C195.063,388.7565 203.83275,389.169 208.7745,391.776 C213.71625,394.383 222.7995,396.30525 227.5845,397.39425 C232.3695,398.48325 244.60425,390.126 255.16425,388.476 C265.72425,386.826 268.89225,395.62875 268.89225,395.62875 C268.89225,395.62875 272.60475,392.60925 279.4605,392.469 C286.31625,392.32875 292.22325,400.0095 292.22325,400.0095 Z" id="Path" fill="#FFFFFF" fill-rule="nonzero"></path>
                            <path d="M131.13375,414.9915 C124.8555,409.57125 116.28375,409.73625 116.28375,409.73625 C114.452741,405.450507 111.264208,401.885148 107.20875,399.58875 C100.60875,396.0165 91.53375,403.71375 77.022,402.60825 C68.508,402.32775 52.3215,391.48725 48.609,391.48725 C44.8965,391.48725 34.34475,396.297 30.63225,397.52625 C26.91975,398.7555 21.9945,394.78725 16.77225,393.69 C14.091,393.13725 12.05325,393.9375 10.0485,395.109 C6.44325,393.87975 6.7485,393.54975 6.7485,393.54975 C17.54775,388.1625 24.84075,395.3895 30.31875,395.3895 C35.79675,395.3895 34.44375,390.64575 43.56825,387.717 C51.25725,385.3905 71.4945,396.10725 74.78625,397.03125 C78.078,397.95525 86.33625,396.4785 98.21625,393.54975 C115.4175,388.4265 117.78525,402.88875 120.549,406.37025 C123.9645,407.055 128.3205,410.69325 131.13375,414.9915 Z" id="Path" fill="#FFFFFF" fill-rule="nonzero"></path>
                            <path d="M147.60075,153.1035 C136.6035,146.95725 119.691,138.9135 92.80425,133.92225 C101.13675,132.198 119.79,130.3335 126.34875,114.94725 C126.4065,121.242 124.26975,131.08425 111.375,135.57225 C116.58075,136.08375 150.33975,147.88125 147.60075,153.1035 Z" id="Path" fill="#FFFFFF" fill-rule="nonzero"></path>
                            <path d="M70.74375,275.82225 C68.4711903,278.371741 66.0584571,280.792737 63.51675,283.074 C58.56675,287.463 43.20525,302.00775 37.5705,301.05075 C31.93575,300.09375 3.91875,301.455 2.81325,313.005 C1.70775,324.555 5.33775,328.30875 6.88875,332.3925 C4.0095,328.515 2.35125,323.68875 1.3035,320.0175 C-0.25575,314.556 0.4785,306.8175 1.22925,301.82625 C1.77330965,298.197466 3.9418061,295.014575 7.11975,293.18025 L7.2435,293.11425 C15.30375,289.278 34.3365,290.367 40.00425,288.5355 C48.972,286.34925 60.324,275.72325 63.2445,272.98425 C65.5394574,274.401733 68.0853326,275.365189 70.74375,275.82225 Z" id="Path" fill="#FFFFFF" fill-rule="nonzero"></path>
                            <path d="M199.93875,65.8185 C197.369533,76.5294815 192.00631,86.3677504 184.39575,94.3305 C188.766255,85.7421164 192.513179,76.8504116 195.6075,67.72425 C198.0825,59.7795 194.7825,42.4875 193.9575,26.2845 C193.4955,17.30025 190.6575,7.2435 188.265,0.0495 C190.024646,2.00269426 191.119392,4.46370679 191.39175,7.0785 C191.6475,14.06625 193.512,15.7905 195.08775,17.7045 C196.6635,19.6185 198.66,21.8955 199.21275,29.04 C199.749,38.91525 201.02775,55.605 199.93875,65.8185 Z" id="Path" fill="#FFFFFF" fill-rule="nonzero"></path>
                        </g>
                        <path d="M164.307,226.446 C150.9255,227.271 127.1325,230.637 119.0145,243.38325 C107.4645,261.53325 101.99475,262.0365 101.99475,297.53625 C101.07075,305.96775 96.68175,329.208 92.8455,340.43625 C89.00925,351.6645 89.133,368.7585 89.133,368.7585 L89.133,368.7585 C84.0845804,371.682473 79.7702414,375.720288 76.51875,380.56425 L73.99425,384.30975 C76.923,374.5995 81.9555,357.24975 85.97325,348.1005 C88.176,341.14575 92.57325,319.36575 91.641,303.27 C90.70875,287.17425 89.6445,274.71675 98.241,254.76825 C106.8375,234.81975 115.566,225.36525 141.0585,224.763 C146.025,224.63925 154.3905,225.225 164.307,226.446 Z" id="Path" fill="#FFFFFF" fill-rule="nonzero"></path>
                        <path d="M279.71625,238.623 C279.782317,238.203816 279.496059,237.810442 279.076875,237.744375 C278.657691,237.678308 278.264317,237.964566 278.19825,238.38375 C274.1475,258.74475 264.86625,300.498 254.27325,327.558 C239.14275,366.069 231.55275,373.2465 214.39275,388.84725 C214.126659,389.102806 214.080128,389.511563 214.281973,389.820386 C214.483819,390.129209 214.876883,390.250649 215.21775,390.1095 C229.30875,383.3775 249.282,367.5045 261.195,326.82375 C272.42325,288.46125 276.66375,268.67775 279.71625,238.623 Z" id="Path" fill="#000000" fill-rule="nonzero"></path>
                    </g>
                </g>
            </g>
        </g>
    </g>
</svg>