<?xml version="1.0" encoding="UTF-8"?>
<svg width="247px" height="191px" viewBox="0 0 247 191" version="1.1" xmlns="http://www.w3.org/2000/svg" xmlns:xlink="http://www.w3.org/1999/xlink">
    <title>Project_1.ai</title>
    <defs>
        <rect id="path-1" x="0" y="0" width="247" height="191" rx="8"></rect>
    </defs>
    <g id="Page-1" stroke="none" stroke-width="1" fill="none" fill-rule="evenodd">
        <g id="BuddhaDashboard" transform="translate(-460.000000, -161.000000)">
            <g id="Project_1.ai" transform="translate(460.000000, 161.000000)">
                <mask id="mask-2" fill="white">
                    <use xlink:href="#path-1"></use>
                </mask>
                <use id="Mask" fill="#FEF4AD" xlink:href="#path-1"></use>
                <g opacity="0.167967297" mask="url(#mask-2)">
                    <g transform="translate(106.000000, -41.000000)">
                        <circle id="Oval" fill="#FEF4AD" fill-rule="nonzero" cx="113.210625" cy="50.873625" r="50.873625"></circle>
                        <path d="M95.8155,89.574375 C95.291625,90.8985 94.004625,93.357 91.661625,93.4395732 C90.8487691,93.4469547 90.1416597,92.8843641 89.96625,92.090625 C89.58675,90.440625 89.821875,88.147125 89.929125,87.32625 C89.9553479,87.1141991 89.9441788,86.8991923 89.896125,86.691 L88.506,80.79225 L86.78175,73.623 C86.78175,73.58175 86.78175,73.544625 86.752875,73.503375 L84.7605,67.183875 C84.6981838,66.9851965 84.6702821,66.777329 84.678,66.56925 L84.880125,62.238 C84.9087723,61.4573327 85.4447868,60.7873146 86.200125,60.588 L86.200125,60.588 C86.5115679,60.4993751 86.8415571,60.4993751 87.153,60.588 L89.2155,61.20675 C89.7427569,61.3601141 90.1683261,61.7506006 90.366375,62.26275 L92.577375,67.98 C92.6606275,68.1998424 92.6998709,68.4339011 92.692875,68.668875 C92.643375,70.38075 92.428875,77.781 92.428875,78.106875 C92.428875,78.43275 93.526125,84.14175 93.71175,84.508875 C93.84375,84.777 95.052375,86.901375 95.695875,88.0275 C95.9754045,88.4960632 96.0196657,89.068406 95.8155,89.574375 Z" id="Path" fill="#FFFFFF" fill-rule="nonzero"></path>
                        <path d="M93.847875,89.7105 C94.318125,90.21375 94.672875,93.781875 91.641,93.8355 C88.609125,93.889125 87.214875,91.397625 87.318,88.209 C87.421125,85.020375 87.90375,79.83525 86.22075,76.093875 C84.53775,72.3525 82.75575,69.234 82.5825,64.4985 C82.40925,59.763 84.162375,58.562625 85.602,56.2485 C85.77525,55.803 84.91725,54.256125 84.711,52.061625 C84.50475,49.867125 80.936625,29.827875 100.01475,22.361625 C99.60225,19.474125 99.532125,16.45875 102.07725,13.286625 C104.622375,10.1145 107.287125,8.55525 114.984375,7.8705 C122.681625,7.18575 129.190875,11.781 129.875625,18.162375 C129.893099,19.5156374 129.824209,20.868636 129.669375,22.213125 C129.669375,22.213125 142.7085,28.400625 143.121,42.178125 C143.463375,48.906 142.572375,54.396375 141.8175,56.590875 C143.32725,57.894375 146.276625,59.230875 144.354375,67.947 C143.32725,73.198125 140.353125,78.733875 140.30775,80.56125 C140.262375,82.388625 139.8045,86.554875 140.30775,89.392875 C140.217,90.5355 139.165125,93.23325 136.830375,93.517875 C134.495625,93.8025 133.44375,91.323375 133.398375,89.53725 C133.398375,89.034 132.391875,88.757625 131.888625,90.085875 C131.33179,91.7361503 131.052995,93.4674705 131.063625,95.209125 C131.109,96.718875 131.19975,97.271625 132.38775,97.040625 C133.57575,96.809625 137.511,96.124875 140.575875,100.9305 C141.44625,100.79025 143.917125,100.1055 147.439875,104.086125 C148.17,104.22225 151.7835,104.1315 155.277375,106.973625 C156.424125,107.204625 169.871625,109.58475 174.079125,122.302125 C175.283625,126.46425 173.980125,133.258125 174.59475,134.833875 C175.209375,136.409625 178.336125,141.021375 178.517625,146.639625 C178.699125,152.257875 177.651375,156.519 177.692625,157.298625 C177.733875,158.07825 180.390375,159.773625 181.726875,168.939375 C181.933125,172.92 180.390375,175.770375 180.901875,177.38325 C181.413375,178.996125 183.632625,179.487 183.315,182.74575 C182.997375,186.0045 181.941375,187.048125 182.3085,188.93325 C182.675625,190.818375 184.135875,191.58975 183.863625,194.745375 C183.58725,196.164375 182.857125,196.62225 183.360375,197.855625 C183.863625,199.089 186.759375,200.079 189.646875,211.53825 C191.569125,219.157125 195.1125,231.5775 196.758375,233.86275 C199.596375,239.07675 210.0285,240.999 210.667875,258.385875 C210.48225,264.05775 206.27475,279.15525 186.78825,282.904875 C183.673875,283.54425 176.4015,284.414625 166.98825,282.220125 C166.233375,282.632625 149.9025,284.36925 137.457375,281.53125 C128.238,279.794625 126.501375,278.491125 126.06825,278.8335 C125.635125,279.175875 127.120125,282.079875 136.7025,284.3445 C136.178625,284.6415 133.914,284.48475 133.914,285.1695 C133.914,285.85425 136.153875,286.56375 142.308375,288.3705 C144.9855,288.8985 146.97375,289.10475 146.9985,289.356375 C147.02325,289.608 143.0385,291.006375 139.701375,290.499 C136.36425,289.991625 132.561,288.118875 129.388875,288.3045 C124.975125,288.498375 120.879,292.23975 117.58725,292.3305 C114.2955,292.42125 112.73625,292.969875 109.33725,291.7365 C103.56225,290.041125 100.67475,286.015125 94.285125,285.833625 C89.7105,285.6975 84.76875,289.58325 81.15525,290.453625 C77.54175,291.324 74.93475,290.82075 71.91525,290.131875 C68.89575,289.443 64.27575,288.028125 61.210875,287.892 C63.63225,287.112375 76.671375,282.17475 81.885375,275.72325 C81.885375,275.72325 72.554625,282.17475 54.437625,280.891875 C45.92775,280.434 36.229875,281.05275 29.64225,280.570125 C23.054625,280.0875 8.02725,279.885375 2.124375,263.967 C1.299375,259.644 -1.2375,256.212 1.918125,244.270125 C5.968875,235.351875 12.5565,235.145625 16.603125,233.017125 C20.64975,230.888625 26.4165,226.705875 31.086,226.63575 C37.327125,226.4295 39.59175,227.596875 40.693125,226.978125 C41.7945,226.359375 42.8175,223.339875 49.269,221.615625 C51.4635,221.549625 54.483,222.440625 56.747625,221.170125 C59.01225,219.899625 60.707625,216.335625 62.766,215.832375 C64.824375,215.329125 68.9535,215.782875 69.213375,215.1435 C69.47325,214.504125 67.934625,211.563 68.92875,207.516375 C69.922875,203.46975 70.818,201.889875 70.19925,201.5475 C69.5805,201.205125 55.262625,218.394 42.636,217.292625 C38.88225,216.838875 32.938125,209.149875 32.113125,199.36125 C32.294625,192.31575 33.301125,185.27025 36.50625,178.959 C39.2176941,171.818989 41.0906192,164.388197 42.087375,156.816 C43.461,146.111625 44.649,131.472 49.512375,119.761125 C54.544875,108.508125 70.191,107.501625 74.0355,108.41325 C76.32075,107.40675 80.54475,106.264125 82.9455,105.7155 C85.34625,105.166875 92.140125,103.1415 93.753,100.7655 C95.365875,98.3895 96.7395,94.07475 96.12075,91.05525 C95.502,88.03575 91.075875,79.1835 90.7005,75.103875 C90.325125,71.02425 90.250875,68.033625 88.741125,65.15025 C87.88725,63.743625 87.52425,63.08775 86.856,63.50025 C86.18775,63.91275 85.998,68.03775 86.823,70.62 C87.577875,73.676625 89.945625,78.684375 90.123,81.873 C90.5025,85.44525 89.562,90.638625 91.463625,91.001625 C92.362875,91.15425 93.196125,88.935 93.847875,89.7105 Z" id="Path" fill="#000000" fill-rule="nonzero"></path>
                        <path d="M70.483875,215.74575 C70.574625,212.6355 74.14275,204.034875 74.96775,201.47325 C76.98075,199.093125 93.26625,185.18775 102.60525,174.94125 C117.04275,157.372875 121.99275,145.022625 124.6575,136.970625 C118.52775,150.96675 95.7825,176.611875 92.4825,179.7675 C89.1825,182.923125 76.151625,194.24625 75.87525,194.24625 C77.11275,192.460125 90.811875,169.723125 90.811875,169.723125 C90.811875,169.723125 98.162625,164.46375 101.73075,161.4525 C110.100375,153.615 120.462375,137.643 123.9645,132.28875 C127.466625,126.9345 132.424875,116.527125 134.48325,111.44925 C137.13975,104.770875 134.668875,98.525625 134.668875,98.525625 C134.668875,98.525625 138.92175,100.472625 137.643,106.326 C136.360125,111.276 125.65575,130.39125 126.5715,134.7885 C130.5975,126.922125 135.353625,117.051 137.548125,114.576 C139.10325,112.2 140.848125,105.1545 140.848125,102.22575 C142.40325,103.87575 152.926125,116.589 151.828875,146.77575 C150.7275,167.272875 150.3645,188.85075 143.22825,197.830875 C145.055625,190.146 149.081625,175.506375 147.25425,165.07425 C145.971375,173.12625 142.126875,192.522 137.18925,199.109625 C134.627625,199.662375 127.3965,200.644125 127.260375,199.47675 C127.260375,199.47675 148.1865,174.656625 146.416875,128.32875 C146.429405,128.100933 146.25488,127.906092 146.027062,127.893563 C145.799245,127.881033 145.604405,128.055558 145.591875,128.283375 C144.91125,133.386 143.484,142.60125 140.641875,155.920875 C136.06725,177.51525 132.957,187.213125 123.993375,197.096625 C121.980375,199.472625 117.70275,199.60875 114.819375,198.4455 C110.50811,196.751649 105.728919,196.678371 101.36775,198.23925 C96.00525,200.2275 89.70225,202.426125 89.70225,202.426125 L85.927875,215.667375 C85.927875,215.667375 73.577625,216.079875 72.6165,216.079875 L71.671875,216.079875 L70.483875,215.74575 Z" id="Path" fill="#F4CC12" fill-rule="nonzero"></path>
                        <path d="M74.971875,285.099375 C74.971875,285.099375 85.457625,279.794625 86.78175,273.103875 C86.9165268,272.343972 87.3065034,271.652782 87.88725,271.1445 C90.853125,268.61175 93.402375,266.805 93.773625,262.593375 C88.559625,266.84625 71.40375,277.690875 49.44225,275.768625 C27.48075,273.846375 12.5235,265.043625 11.154,244.204125 C8.542875,245.986125 2.4915,258.748875 21.1695,272.47275 C16.916625,273.433875 7.173375,271.3095 4.90875,255.387 C4.08375,248.457 6.14625,240.08325 14.994375,237.06375 C18.084,236.23875 25.306875,236.99775 29.266875,238.5075 C28.582125,236.445 24.877875,232.810875 24.877875,232.810875 C24.877875,232.810875 29.865,229.098375 42.39675,231.210375 C49.3515,232.126125 56.00925,231.5775 59.30925,229.560375 C54.186,230.19975 47.23125,228.18675 47.23125,228.18675 C47.23125,228.18675 49.883625,223.793625 57.844875,225.258 C63.51675,226.2645 73.40025,238.0455 85.383375,231.664125 C85.383375,231.664125 68.470875,232.942875 61.961625,222.589125 C64.614,220.0275 68.091375,216.459375 73.6725,219.751125 C79.072125,223.876125 102.584625,233.475 115.578375,216.5955 C115.578375,216.5955 101.668875,226.524375 89.227875,224.0535 C84.013875,223.686375 79.7115,219.660375 79.7115,219.660375 C79.7115,219.660375 90.325125,222.910875 102.95175,219.751125 C108.72675,217.688625 116.5395,213.852375 120.24375,213.852375 C123.948,213.852375 131.637,215.089875 128.753625,218.241375 C125.87025,221.392875 121.889625,229.634625 98.01,237.595875 C103.500375,237.595875 110.088,238.008375 124.773,226.75125 C129.166125,222.910875 133.489125,216.117 136.3725,216.80175 C135.81975,218.86425 130.057125,230.3895 116.056875,238.41675 C120.0375,238.623 126.28275,236.1315 132.4125,229.634625 C138.36075,222.770625 141.928875,218.0145 141.928875,218.0145 L144.816375,219.2025 C142.678441,219.480907 140.688356,220.444831 139.1445,221.94975 C137.94,223.1625 137.742,225.44775 136.62825,227.440125 C140.83575,223.686375 145.86825,220.576125 149.617875,220.576125 C153.27675,221.854875 155.10825,222.589125 155.10825,222.589125 C155.10825,222.589125 143.397375,222.95625 132.78375,232.926375 C129.034125,234.939375 124.364625,243.082125 124.364625,243.082125 C124.364625,243.082125 118.234875,239.514 111.832875,246.382125 C110.273625,244.002 105.699,237.963 96.36825,244.002 C96.735375,240.89175 97.19325,238.788 95.638125,237.04725 C94.083,235.3065 91.793625,233.297625 86.2125,235.129125 C80.9985,236.5935 77.1375,237.69075 71.775,235.310625 C66.4125,232.9305 61.25625,230.187375 57.869625,231.65175 C54.483,233.116125 52.47,235.67775 49.999125,235.310625 C47.52825,234.9435 43.13925,232.749 40.759125,234.5805 C38.379,236.412 38.746125,238.511625 37.830375,238.511625 C36.914625,238.511625 33.532125,238.148625 30.694125,240.6195 C28.681125,240.06675 17.337375,236.5935 12.304875,244.09275 C17.518875,242.44275 25.113,240.9825 31.24275,245.466375 C34.90575,248.304375 39.983625,262.164375 54.39225,263.9505 C62.22975,264.22275 72.232875,262.164375 76.1475,253.105875 C87.813,258.39 94.809,261.479625 94.809,261.479625 C94.809,261.479625 97.8285,262.783125 95.563875,266.842125 C93.29925,270.901125 87.96975,279.423375 85.408125,281.345625 C92.9115,277.138125 95.65875,271.82925 99.317625,265.975875 C100.1715,271.338375 101.10375,279.74925 107.757375,284.719875 C107.9131,284.857275 108.14669,284.857481 108.302658,284.720356 C108.458625,284.58323 108.48833,284.351536 108.372,284.1795 C105.039,278.466375 101.574,271.8045 103.252875,265.617 C104.9895,267.267 108.285375,267.63 108.285375,267.63 C108.285375,267.63 113.499375,274.126875 118.894875,275.496375 C119.629125,277.60425 121.551375,281.271375 126.946875,283.746375 C122.37225,284.934375 117.871875,287.6775 113.95725,287.772375 C110.042625,287.86725 109.10625,287.772375 105.70725,285.297375 C102.30825,282.822375 97.29225,278.524125 91.983375,280.347375 C86.6745,282.170625 83.01975,285.561375 79.633125,285.379875 C76.2465,285.198375 74.971875,285.099375 74.971875,285.099375 Z" id="Path" fill="#F3CD11" fill-rule="nonzero"></path>
                        <path d="M100.860375,244.662 C100.860375,244.662 104.160375,243.469875 107.35725,246.670875 C110.554125,249.871875 112.30725,256.83075 118.79175,258.01875 C117.513,254.9085 113.301375,250.515375 112.4805,248.0445 C115.132875,247.038 119.9055,245.11575 122.178375,246.3945 C124.45125,247.67325 126.022875,249.32325 131.509125,253.34925 C136.90875,257.098875 149.213625,266.2935 168.9765,264.37125 C174.4545,263.030625 180.563625,261.327 183.7605,256.66575 C184.042869,256.269688 184.003046,255.728665 183.665727,255.378218 C183.328409,255.02777 182.7893,254.967327 182.38275,255.234375 C177.7545,258.3075 169.3395,262.4985 158.961,260.803125 C145.509375,258.608625 135.63,254.35575 130.139625,245.982 C133.29525,245.70975 140.019,244.2 144.824625,245.5695 C149.63025,246.939 157.45125,248.457 161.9805,247.768125 C158.268,245.982 154.43175,244.336125 154.43175,244.336125 C154.43175,244.336125 158.82075,241.861125 167.607,242.273625 C176.39325,242.686125 190.113,244.748625 196.288125,241.3125 C184.899,241.3125 181.8795,240.763875 181.8795,240.763875 C182.576413,239.159505 182.150404,237.288405 180.827625,236.143875 C178.53825,234.130875 172.684875,233.94525 169.47975,235.59525 C170.214,233.58225 176.07975,228.459 186.22725,233.396625 C184.305,234.493875 182.292,234.493875 182.015625,235.500375 C185.6745,236.053125 199.85625,235.2735 204.11325,248.172375 C206.17575,255.036375 208.778625,272.60475 185.035125,277.270125 C176.6655,278.779875 159.922125,277.40625 147.15525,272.732625 C134.528625,268.195125 124.513125,261.61575 120.80475,259.83375 C123.9645,264.37125 133.98,272.047875 149.49,278.223 C143.587125,278.086875 129.999375,277.534125 120.945,272.0355 C111.890625,266.536875 107.493375,255.01575 106.396125,252.544875 C105.298875,250.074 103.69425,245.804625 100.860375,244.662 Z" id="Path" fill="#F4CC12" fill-rule="nonzero"></path>
                        <path d="M91.02225,158.4825 C91.265625,159.410625 98.162625,159.773625 99.169125,159.501375 C102.370125,157.579125 113.256,140.83575 121.39875,127.111875 C131.373,110.092125 130.824375,105.42675 131.29875,101.58225 C127.27275,100.39425 127.17375,97.007625 126.996375,95.638125 C115.471125,105.059625 104.490375,97.4655 100.555125,94.813125 C99.367125,106.524 87.5655,107.62125 82.7145,108.62775 C100.452,111.92775 109.527,117.871875 114.555375,120.7965 C101.652375,115.306125 78.139875,112.195875 70.54575,112.3815 C57.816,112.68675 53.43525,117.414 49.137,127.384125 C44.83875,137.35425 45.38325,143.578875 45.837,151.630875 C46.29075,159.682875 44.100375,170.572875 43.003125,174.046125 C40.990125,178.624875 41.584125,179.821125 40.115625,184.65975 L44.57475,184.3875 C46.0535336,183.963749 47.5759216,183.710479 49.11225,183.632625 C51.8612603,183.515869 54.5331015,182.688735 56.86725,181.231875 C59.404125,179.581875 62.836125,175.671375 65.52975,174.0255 C65.52975,171.963 64.911,156.184875 66.1485,152.4765 C64.4325,148.1535 62.233875,139.095 59.626875,137.449125 C61.689375,137.242875 65.814375,137.10675 66.763125,146.64375 C67.287,145.15875 74.955375,142.51875 78.981375,144.58125 C86.05575,148.215375 91.02225,158.4825 91.02225,158.4825 Z" id="Path" fill="#FACDA3" fill-rule="nonzero"></path>
                        <path d="M81.38625,137.564625 C81.38625,137.7915 82.669125,137.886375 83.81175,140.171625 C85.503,136.830375 86.658,134.932875 87.289125,133.860375 C88.044,132.5775 89.6445,130.040625 90.919125,130.931625 C92.1333311,131.673665 92.7208096,133.12144 92.367,134.49975 C91.999875,137.4285 88.44825,142.96425 88.353375,145.431 C88.353375,145.431 90.415875,145.93425 89.269125,148.6815 C90.366375,149.2755 91.971,149.824125 91.64925,150.508875 C91.3275,151.193625 90.094125,153.759375 90.366375,155.99925 C90.638625,158.239125 90.688125,159.66225 90.688125,159.66225 C90.192293,161.213565 89.9526507,162.83533 89.978625,164.46375 C90.11475,166.728375 90.184875,173.179875 83.791125,179.491125 C81.868875,182.238375 68.76375,207.788625 51.744,214.099875 C42.702,213.596625 39.369,212.8005 37.624125,209.067375 C33.63525,200.56575 35.289375,193.00875 35.289375,193.00875 C35.289375,193.00875 39.546375,183.814125 50.25075,183.678 C55.28325,182.395125 58.760625,181.891875 65.51325,173.567625 C64.873875,171.373125 65.637,171.282375 66.094875,165.515625 C66.55275,159.748875 66.3135,147.972 66.919875,146.28075 C67.52625,144.5895 68.413125,142.489875 68.607,141.862875 C69.749625,138.150375 70.11675,135.262875 72.039,135.4155 C73.96125,135.568125 73.528125,141.433875 73.528125,141.433875 L74.707875,139.53225 C75.4613966,137.828226 76.3012349,136.163694 77.224125,134.545125 C77.9295,133.423125 78.643125,131.89275 79.443375,130.95225 C79.9984806,130.287058 80.9496005,130.113496 81.703875,130.53975 C82.660875,131.109 83.457,132.32175 82.764,134.3595 C82.4062279,135.468698 81.9449475,136.541796 81.38625,137.564625 Z" id="Path" fill="#000000" fill-rule="nonzero"></path>
                        <path d="M84.9585,151.8165 C84.9585,151.8165 80.532375,151.713375 78.849375,152.262 C78.436875,150.9585 76.96425,146.738625 79.15875,140.6295 C79.7775,139.11975 80.911875,137.61 82.04625,138.9795 C83.180625,140.349 84.447,143.405625 85.135875,144.1935 C85.82475,144.981375 87.198375,146.606625 89.046375,146.697375 C89.871375,146.928375 88.840125,148.058625 87.602625,148.24425 C86.365125,148.429875 84.492375,147.464625 83.58075,146.870625 C82.669125,146.276625 79.690875,143.529375 79.690875,143.529375 C79.690875,143.529375 80.56125,145.360875 81.6585,146.091 C81.84,147.283125 82.2525,150.756375 82.2525,150.756375 C82.4755891,149.767597 82.7509761,148.79135 83.0775,147.83175 C83.4405,148.19475 84.0345,149.06925 86.233125,149.84475 C85.7542636,150.465486 85.3279159,151.125014 84.9585,151.8165 Z" id="Path" fill="#FECFA1" fill-rule="nonzero"></path>
                        <path d="M86.323875,143.463375 C86.5470405,143.649369 86.8454912,143.717863 87.127424,143.647787 C87.4093567,143.577711 87.6410091,143.377458 87.751125,143.108625 C88.209,141.986625 88.955625,140.34075 89.71875,138.571125 C90.519,136.719 91.133625,135.774375 91.414125,134.38425 C91.5443548,133.805007 91.5042426,133.200459 91.298625,132.6435 C91.1979691,132.360416 90.9637302,132.145498 90.6730476,132.069524 C90.382365,131.99355 90.0729223,132.066369 89.846625,132.264 C89.3805,132.6765 88.92675,133.464375 88.072875,135.069 C86.777625,137.506875 86.010375,138.991875 84.90075,140.947125 C84.7260563,141.254975 84.7453548,141.63612 84.95025,141.92475 C85.3246607,142.506443 85.7881947,143.025657 86.323875,143.463375 Z" id="Path" fill="#FECFA1" fill-rule="nonzero"></path>
                        <path d="M76.3455,177.9525 C76.3455,177.9525 71.45325,178.138125 69.62175,174.887625 C67.79025,171.637125 68.338875,166.01475 68.338875,163.35825 C68.338875,160.70175 68.569875,149.956125 69.39075,144.923625 C69.597,143.65725 70.90875,137.98125 72.27825,138.8145 C73.10325,139.31775 72.480375,144.5565 72.067875,146.342625 C71.68425,148.0215 71.036625,151.449375 71.7585,154.00275 C71.7688534,154.051709 71.7688534,154.102291 71.7585,154.15125 C71.60175,155.071125 70.257,155.71875 70.257,155.71875 C70.257,155.71875 80.3385,152.950875 83.964375,153.55725 C84.1302939,153.586685 84.2443483,153.740568 84.22425,153.907875 C84.038625,155.47125 83.71275,158.07 84.38925,159.946875 C84.4246689,160.035277 84.4216675,160.134436 84.3809667,160.220534 C84.3402659,160.306632 84.2655439,160.371887 84.17475,160.400625 C82.005,161.068875 78.486375,162.822 77.69025,166.287 C77.6547313,166.435631 77.7245769,166.589418 77.8598703,166.660471 C77.9951636,166.731525 78.1614202,166.701734 78.263625,166.588125 C79.765125,164.8515 82.165875,162.6405 86.79,161.382375 C86.9573786,161.339727 87.0599958,161.171142 87.021,161.002875 C86.3115,158.07825 85.602,153.800625 87.503625,151.1895 C88.097625,150.32325 89.88375,150.50475 89.425875,151.92375 C88.745655,154.060611 88.6615068,156.342594 89.1825,158.52375 C89.1927622,158.571328 89.1927622,158.620547 89.1825,158.668125 C88.8525,159.806625 88.15125,161.374125 88.287375,165.210375 C88.4235,168.295875 87.32625,173.922375 84.574875,176.735625 C83.617875,177.6885 82.22775,178.98375 79.0185,178.05975 C78.9693486,178.051442 78.9191514,178.051442 78.87,178.05975 C76.88175,178.15875 76.3455,177.9525 76.3455,177.9525 Z" id="Path" fill="#FECFA1" fill-rule="nonzero"></path>
                        <path d="M74.43975,153.5325 C74.2212156,153.59147 73.9879297,153.555135 73.7976816,153.432496 C73.6074335,153.309856 73.4780203,153.112385 73.4415,152.889 C73.181625,151.350375 72.7485,148.025625 73.387875,145.5465 C74.1585824,142.400233 75.3754074,139.380395 77.001375,136.57875 C78.651375,133.7655 80.301375,130.015875 81.66675,131.868 C82.561875,133.518 80.8665,136.442625 80.06625,137.40375 C78.1607508,139.722464 76.9927685,142.558377 76.712625,145.5465 C76.423875,149.3085 76.432125,150.121125 76.7745,152.059875 C76.838012,152.4509 76.6146268,152.831867 76.242375,152.967375 C75.49575,153.231375 74.88525,153.412875 74.43975,153.5325 Z" id="Path" fill="#FECFA1" fill-rule="nonzero"></path>
                        <path d="M136.6365,63.817875 C138.105536,67.6853292 138.789838,71.8065707 138.6495,75.94125 C140.064375,72.463875 141.211125,69.444375 141.664875,64.915125 C141.75975,61.66875 140.798625,60.3405 139.92825,61.029375 C139.057875,61.71825 139.2435,62.9475 136.6365,63.817875 Z" id="Path" fill="#FFFFFF" fill-rule="nonzero"></path>
                        <path d="M137.630625,79.063875 C138.1215,79.237125 138.006,80.103375 137.32125,82.302 C137.09025,83.58075 137.13975,84.863625 137.869875,86.967375 C138.237,88.567875 137.275875,91.315125 136.219875,91.03875 C135.163875,90.762375 135.304125,88.798875 134.710125,88.295625 C134.116125,87.792375 133.109625,87.742875 134.1615,85.639125 C136.211625,82.495875 137.13975,78.890625 137.630625,79.063875 Z" id="Path" fill="#FFFFFF" fill-rule="nonzero"></path>
                        <path d="M116.221875,96.07125 C122.071125,95.794875 133.332375,87.289125 136.261125,74.567625 C136.80975,69.444375 136.170375,61.120125 135.894,56.178375 C135.62175,52.61025 134.6235,51.48 133.8315,50.518875 C133.0395,49.55775 132.1155,48.69975 131.979375,45.197625 C131.87625,43.547625 130.469625,39.571125 124.08825,38.597625 C120.0375,38.185125 118.11525,39.901125 115.236,39.901125 C112.35675,39.901125 106.5735,37.983 104.25525,38.251125 C101.937,38.51925 97.65525,39.4185 95.539125,45.387375 C95.19675,46.761 95.885625,49.12875 95.332875,50.362125 C95.027625,51.942 92.899125,54.516 93.550875,56.962125 C93.550875,56.962125 94.821375,54.39225 96.05475,53.843625 C97.288125,53.295 99.89925,52.503 102.06075,52.67625 C104.22225,52.8495 109.720875,54.6645 108.945375,59.057625 C107.80275,58.278 98.195625,53.018625 93.2085,58.9215 C93.022875,60.064125 93.71175,62.580375 93.71175,62.580375 C93.71175,62.580375 105.97125,64.774875 108.9,62.304 C108.16575,63.677625 106.425,66.697125 101.668875,66.05775 C98.8514061,65.6864336 96.1151014,64.8500695 93.5715,63.58275 C93.5715,63.58275 93.2745,71.886375 94.71825,78.403875 C96.162,84.921375 104.10675,96.644625 116.221875,96.07125 Z" id="Path" fill="#FACDA3" fill-rule="nonzero"></path>
                        <circle id="Oval" fill="#000000" fill-rule="nonzero" cx="116.8035" cy="78.238875" r="1.2705"></circle>
                        <ellipse id="Oval" fill="#000000" fill-rule="nonzero" transform="translate(110.078035, 78.239772) rotate(-15.250000) translate(-110.078035, -78.239772) " cx="110.078035" cy="78.2397718" rx="1.068375" ry="1.2705"></ellipse>
                        <path d="M117.871875,83.122875 C117.071625,82.5495 116.67975,82.34325 116.040375,82.322625 C115.401,82.302 114.96375,82.962 114.0975,82.941375 L114.0975,82.941375 C113.23125,82.962 112.794,82.302 112.154625,82.322625 C111.51525,82.34325 111.1275,82.553625 110.32725,83.122875 C109.527,83.692125 106.849875,84.018 106.849875,84.018 C109.79925,85.135875 110.562375,84.269625 111.676125,84.863625 C112.459875,85.276125 113.144625,85.614375 113.586,85.8165 C113.911345,85.9692164 114.28778,85.9692164 114.613125,85.8165 C115.050375,85.61025 115.735125,85.28025 116.518875,84.8595 C117.640875,84.2655 118.39575,85.135875 121.34513,84.0345 C121.34925,84.013875 118.696875,83.69625 117.871875,83.122875 Z" id="Path" fill="#000000" fill-rule="nonzero"></path>
                        <path d="M109.93125,86.439375 C111.113816,87.1908501 112.478222,87.6071577 113.878875,87.643875 C116.073375,87.643875 118.003875,86.851875 118.272,86.33625 C117.68625,87.742875 117.0015,89.871375 114.085125,89.871375 C111.16875,89.871375 109.93125,86.439375 109.93125,86.439375 Z" id="Path" fill="#000000" fill-rule="nonzero"></path>
                        <path d="M117.459375,59.1525 C117.459375,59.1525 117.5295,53.216625 124.801875,52.5525 C127.8915,52.31325 131.15025,52.861875 132.350625,57.7665 C130.944,56.9085 129.261,55.262625 125.214375,55.77825 C121.16775,56.293875 117.459375,59.1525 117.459375,59.1525 Z" id="Path" fill="#000000" fill-rule="nonzero"></path>
                        <path d="M117.649125,63.00525 C117.649125,63.00525 122.863125,63.657 125.437125,63.694125 C128.011125,63.73125 132.40425,63.83025 133.018875,63.2115 C132.160875,64.27575 130.172625,67.023 125.643375,66.301125 C122.772658,65.7900265 120.045926,64.6658472 117.649125,63.00525 L117.649125,63.00525 Z" id="Path" fill="#000000" fill-rule="nonzero"></path>
                        <path d="M93.06825,221.145375 C93.06825,221.145375 88.605,221.351625 85.107,220.18425 C81.609,219.016875 80.474625,219.12 79.035,218.365125 C77.595375,217.61025 74.12625,215.791125 72.41025,215.997375 C72.41025,214.693875 71.58525,211.7445 77.413875,210.634875 C78.238875,209.946 80.408625,207.227625 84.73575,209.215875 C85.4205,207.77625 85.779375,205.656 86.051625,205.198125 C86.2073054,204.922733 86.3239228,204.627024 86.398125,204.3195 C86.61675,203.4945 87.165375,203.43675 88.00275,203.33775 L88.056375,203.25525 C88.3601369,202.761156 88.8808597,202.441065 89.458875,202.393125 C89.595,202.393125 89.7435,202.393125 89.912625,202.393125 C91.28625,202.475625 95.324625,201.78675 100.50975,199.254 C102.222023,198.422226 104.092952,197.967858 105.996,197.921625 C109.118625,197.84325 113.722125,198.033 117.426375,199.32825 C119.94371,199.834871 122.487258,200.201186 125.04525,200.4255 L123.057,213.736875 C123.057,213.736875 120.1695,212.845875 118.8,213.18825 C117.4305,213.530625 115.16175,215.79525 106.86225,217.787625 C97.733625,219.363375 97.733625,220.526625 93.06825,221.145375 Z" id="Path" fill="#000000" fill-rule="nonzero"></path>
                        <path d="M157.570875,193.697625 C157.570875,193.697625 156.201375,198.7755 141.24,202.2075 C137.3955,202.47975 124.768875,203.8575 121.064625,202.756125 C117.445144,201.64156 113.737024,200.838387 109.98075,200.355375 C107.613,200.08725 104.828625,200.046 102.9435,200.409 C101.99475,200.899875 100.881,201.510375 99.870375,201.931125 C98.4121322,202.568449 96.8517281,202.940041 95.26275,203.028375 C93.2666423,203.120322 91.2663771,203.005586 89.293875,202.686 C89.293875,202.686 88.468875,203.30475 89.087625,203.9895 C89.706375,204.67425 92.4495,206.877 97.45725,205.227 C100.959375,203.9895 104.185125,201.58875 105.831,203.440875 C107.1345,205.227 107.81925,208.176375 103.7685,212.157 C100.4685,215.312625 96.69825,217.107 91.966875,216.137625 C89.28975,215.655 86.604375,213.4605 86.818875,210.775125 C87.033375,208.08975 89.22375,207.310125 88.262625,204.42675 C87.714,203.878125 86.942625,204.175125 87.214875,205.321875 C87.305625,206.188125 87.297375,206.58825 86.15475,209.290125 C85.606125,210.84525 85.911375,213.86475 87.7635,215.782875 C89.4135,217.111125 91.232625,218.942625 93.839625,218.711625 C96.446625,218.480625 103.492125,215.923125 107.679,215.098125 C111.865875,214.273125 116.395125,210.973125 117.76875,210.705 C119.142375,210.436875 123.75825,210.065625 132.81675,213.085125 C137.944125,214.009125 167.784375,219.77175 179.210625,212.19 L179.895375,211.550625 C179.895375,211.550625 176.859375,199.69125 170.671875,194.7495 C167.49975,192.324 160.22325,191.3175 157.570875,193.697625 Z" id="Path" fill="#FED09E" fill-rule="nonzero"></path>
                        <path d="M90.1725,220.0275 C90.2675716,220.138279 90.2709013,220.300865 90.1804449,220.415443 C90.0899885,220.530021 89.9310683,220.564516 89.80125,220.49775 C88.0651128,219.504566 86.2542626,218.648102 84.385125,217.936125 C81.4605,216.921375 79.847625,216.805875 79.138125,216.5625 C78.428625,216.319125 74.815125,214.368 72.6165,215.84475 C72.4713796,215.289103 72.7275998,214.706629 73.23525,214.438125 C73.68075,214.12875 75.84225,213.68325 77.422125,214.504125 C78.552375,214.98675 80.507625,216.084 80.507625,216.084 C80.507625,216.084 83.461125,215.05275 84.319125,215.01975 C83.0694994,215.060768 81.8185782,215.004222 80.57775,214.850625 C80.268375,214.7805 79.575375,212.9655 76.555875,212.916 C74.146875,212.85825 73.734375,213.4275 73.734375,213.4275 C73.734375,213.4275 74.212875,211.7115 76.621875,211.880625 C79.030875,212.04975 79.6455,212.053875 81.4275,213.769875 L84.0345,212.5695 L81.736875,212.466375 C81.0822447,211.458246 79.9874329,210.821265 78.7875,210.750375 C79.42275,210.337875 80.652,209.826375 84.5955,209.983125 C84.5955,209.983125 84.68625,214.009125 84.8265,214.97025 C86.7544104,216.494749 88.5434096,218.18712 90.1725,220.0275 Z" id="Path" fill="#FED09E" fill-rule="nonzero"></path>
                        <path d="M88.29975,210.783375 C88.29975,210.783375 87.561375,213.052125 89.458875,213.827625 C91.075875,214.396875 98.3895,215.9685 102.361875,211.09275 C101.124375,211.2495 99.796125,213.69975 94.590375,213.208875 C91.28625,212.977875 89.318625,212.87475 88.29975,210.783375 Z" id="Path" fill="#FED09E" fill-rule="nonzero"></path>
                        <path d="M138.373125,232.307625 C138.373125,232.307625 140.476875,227.9145 149.444625,226.359375 C158.412375,224.80425 161.613375,226.908 161.613375,226.908 C161.613375,226.908 152.538375,233.5905 148.98675,233.772 C149.626125,234.411375 151.272,235.9665 156.762375,232.85625 C162.25275,229.746 168.201,225.62925 175.428,227.64225 C174.879375,226.45425 172.49925,225.080625 169.756125,225.352875 C170.48625,223.249125 170.762625,221.60325 174.054375,220.77825 C175.704375,220.229625 177.53175,217.47825 177.53175,217.47825 C177.638887,219.502531 177.328585,221.527217 176.620125,223.4265 C176.16225,224.981625 176.946,227.5515 177.560625,229.007625 C176.067375,228.459 173.415,229.370625 171.678375,230.74425 C169.937625,231.8415 166.09725,233.8545 165,233.487375 C162.896492,232.718408 160.583283,232.752188 158.503125,233.58225 C155.574375,234.77025 154.84425,236.96475 148.071,236.416125 C141.29775,235.8675 141.75975,232.584 138.373125,232.307625 Z" id="Path" fill="#F4CC12" fill-rule="nonzero"></path>
                        <path d="M78.16875,176.405625 C78.16875,176.405625 77.529375,179.2395 74.971875,179.6025 C72.5233148,179.992608 70.0166927,179.471618 67.926375,178.138125 C66.462,179.51175 60.790125,184.8165 56.30625,185.91375 C53.46825,186.8295 43.93125,186.280875 39.925875,188.203125 L39.864,188.24025 C38.2764929,189.150286 37.1928915,190.736934 36.922875,192.54675 C36.543375,195.02175 36.172125,198.919875 36.955875,201.65475 C38.193375,205.97775 41.138625,213.522375 49.6485,210.507 C55.757625,207.75975 64.53975,202.818 69.139125,196.436625 C73.7385,190.05525 79.864125,181.70625 80.916,180.4275 C80.18175,178.600125 79.311375,176.471625 78.16875,176.405625 Z" id="Path" fill="#FACDA3" fill-rule="nonzero"></path>
                        <path d="M91.1625,162.5415 C91.1625,162.5415 91.36875,166.386 90.820125,167.96175 C92.882625,166.452 95.002875,164.806125 95.621625,163.01175 L91.1625,162.5415 Z" id="Path" fill="#FFFFFF" fill-rule="nonzero"></path>
                        <path d="M89.409375,206.509875 C89.461841,207.470482 89.350244,208.433006 89.079375,209.356125 C89.0099116,209.54407 89.0719473,209.755327 89.232,209.875875 C90.4695,210.8205 92.2515,211.525875 97.812,211.220625 L97.8615,211.220625 C99.6724265,210.998813 101.425644,210.439127 103.030125,209.570625 C103.081532,209.539776 103.126381,209.499132 103.162125,209.451 C103.450875,209.0385 104.7585,207.021375 103.467375,205.21875 C103.364228,205.077378 103.190587,205.005691 103.01775,205.033125 C102.1185,205.189875 101.16975,206.600625 99.119625,207.095625 C97.0695,207.590625 92.932125,208.88175 90.193125,206.184 C90.0637396,206.04669 89.8628879,206.003768 89.6886809,206.076202 C89.5144739,206.148635 89.4032642,206.321308 89.409375,206.509875 Z" id="Path" fill="#F4CC12" fill-rule="nonzero"></path>
                        <path d="M128.596875,36.828 C128.596875,36.828 132.84975,46.728 133.26225,54.80475 C133.67475,62.8815 135.32475,71.548125 134.08725,75.52875 C132.84975,79.509375 129.009375,88.567875 127.07475,91.174875 C125.140125,93.781875 128.72475,94.474875 128.72475,94.474875 L138.356625,80.19 L141.516375,67.01475 L134.553375,41.62125 L128.596875,36.828 Z" id="Path" fill="none"></path>
                        <g id="Group" opacity="0.8" stroke-width="1" fill="none" fill-rule="evenodd" transform="translate(36.300000, 41.662500)">
                            <path d="M136.23225,159.080625 C135.861,162.644625 129.826125,163.106625 118.668,164.385375 C104.66775,166.3035 89.4795,163.746 83.8035,162.925125 C75.5535,159.357 74.014875,159.625125 70.351875,159.534375 C66.688875,159.443625 63.58275,161.82375 57.915,162.190875 C55.171875,162.36825 53.538375,162.00525 52.5855,161.59275 C52.6643767,161.365609 52.8077165,161.166367 52.998,161.019375 C54.9702321,161.341492 56.9706179,161.457617 58.966875,161.365875 C62.398875,161.22975 65.28225,159.443625 66.581625,158.758875 C72.55875,157.661625 81.068625,159.996375 84.772875,161.0895 C88.477125,162.182625 101.10375,160.821375 104.94825,160.545 C119.901375,157.108875 121.275,152.035125 121.275,152.035125 C122.66925,150.797625 125.338125,150.47175 128.011125,150.797625 C134.371875,152.79 136.508625,156.34575 136.23225,159.080625 Z" id="Path" fill="#FFFFFF" fill-rule="nonzero"></path>
                            <path d="M89.673375,87.3015 C88.592625,90.250875 87.610875,92.890875 86.785875,94.48725 C84.40575,99.243375 65.558625,123.39525 56.958,132.367125 C52.9185106,135.825898 49.865877,140.291709 48.109875,145.311375 C43.89,148.999125 39.699,152.579625 39.546375,152.579625 C40.783875,150.80175 54.487125,128.060625 54.487125,128.060625 C54.487125,128.060625 61.8585,122.80125 65.43075,119.79 C73.800375,111.9525 84.1665,95.9805 87.6645,90.62625 C88.295625,89.6775 88.972125,88.53075 89.673375,87.3015 Z" id="Path" fill="#FFFFFF" fill-rule="nonzero"></path>
                            <path d="M101.338875,64.651125 C101.26875,64.906875 101.178,65.208 101.0625,65.538 C100.315875,66.462 99.490875,67.386 98.682375,68.31825 C99.7422571,64.5581199 99.6343648,60.5646663 98.373,56.86725 C98.591625,56.96625 102.609375,58.96275 101.338875,64.651125 Z" id="Path" fill="#FFFFFF" fill-rule="nonzero"></path>
                            <path d="M73.800375,76.55175 C68.30175,73.478625 59.8455,69.45675 46.402125,66.961125 C50.568375,66.099 59.895,65.16675 63.174375,57.473625 C63.20325,60.621 62.134875,65.542125 55.6875,67.786125 C58.290375,68.041875 75.169875,73.940625 73.800375,76.55175 Z" id="Path" fill="#FFFFFF" fill-rule="nonzero"></path>
                            <path d="M35.371875,137.911125 C34.2355951,139.185871 33.0292285,140.396369 31.758375,141.537 C29.283375,143.7315 21.602625,151.003875 18.78525,150.525375 C15.967875,150.046875 1.959375,150.7275 1.406625,156.5025 C0.853875,162.2775 2.668875,164.154375 3.444375,166.19625 C2.00475,164.2575 1.175625,161.844375 0.65175,160.00875 C-0.127875,157.278 0.23925,153.40875 0.614625,150.913125 C0.886654826,149.098733 1.97090305,147.507287 3.559875,146.590125 L3.62175,146.557125 C7.651875,144.639 17.16825,145.1835 20.002125,144.26775 C24.486,143.174625 30.162,137.861625 31.62225,136.492125 C32.7697287,137.200867 34.0426663,137.682594 35.371875,137.911125 Z" id="Path" fill="#FFFFFF" fill-rule="nonzero"></path>
                            <path d="M99.969375,32.90925 C98.6847664,38.2647407 96.0031549,43.1838752 92.197875,47.16525 C94.3831277,42.8710582 96.2565893,38.4252058 97.80375,33.862125 C99.04125,29.88975 97.39125,21.24375 96.97875,13.14225 C96.74775,8.650125 95.32875,3.62175 94.1325,0.02475 C95.0123231,1.00134713 95.5596961,2.23185339 95.695875,3.53925 C95.82375,7.033125 96.756,7.89525 97.543875,8.85225 C98.33175,9.80925 99.33,10.94775 99.606375,14.52 C99.8745,19.457625 100.513875,27.8025 99.969375,32.90925 Z" id="Path" fill="#FFFFFF" fill-rule="nonzero"></path>
                        </g>
                        <path d="M151.894875,143.224125 C149.74575,116.67975 143.455125,108.986625 140.212875,106.76325 C140.569857,105.266406 140.781216,103.738542 140.844,102.201 C142.33725,103.780875 152.109375,115.561875 151.894875,143.224125 Z" id="Path" fill="#FFFFFF" fill-rule="nonzero" opacity="0.8"></path>
                        <path d="M82.1535,113.223 C75.46275,113.6355 63.56625,115.3185 59.50725,121.691625 C53.73225,130.766625 50.997375,131.01825 50.997375,148.768125 C50.535375,152.983875 48.340875,164.604 46.42275,170.218125 C44.504625,175.83225 44.5665,184.37925 44.5665,184.37925 L44.5665,184.37925 C42.0422902,185.841237 39.8851207,187.860144 38.259375,190.282125 L36.997125,192.154875 C38.4615,187.29975 40.97775,178.624875 42.986625,174.05025 C44.088,170.572875 46.286625,159.682875 45.8205,151.635 C45.354375,143.587125 44.82225,137.358375 49.1205,127.384125 C53.41875,117.409875 57.783,112.682625 70.52925,112.3815 C73.0125,112.319625 77.19525,112.6125 82.1535,113.223 Z" id="Path" fill="#FFFFFF" fill-rule="nonzero"></path>
                        <path d="M139.858125,119.3115 C139.891159,119.101908 139.74803,118.905221 139.538438,118.872187 C139.328845,118.839154 139.132159,118.982283 139.099125,119.191875 C137.07375,129.372375 132.433125,150.249 127.136625,163.779 C119.571375,183.0345 115.776375,186.62325 107.196375,194.423625 C107.063329,194.551403 107.040064,194.755781 107.140987,194.910193 C107.241909,195.064605 107.438442,195.125324 107.608875,195.05475 C114.654375,191.68875 124.641,183.75225 130.5975,163.411875 C136.211625,144.230625 138.331875,134.338875 139.858125,119.3115 Z" id="Path" fill="#000000" fill-rule="nonzero"></path>
                    </g>
                </g>
            </g>
        </g>
    </g>
</svg>